<svg width="220" height="400" viewBox="0 0 220 400" fill="none" xmlns="http://www.w3.org/2000/svg">
<g opacity="0.85" clip-path="url(#clip0_4_577)">
<path d="M144.87 14.9709C148.381 11.1978 154.056 13.1406 155.967 12.0609C156.734 10.6137 154.294 8.01746 158.593 6.56035C159.314 6.31581 160.633 7.07735 161.374 6.91257C161.863 6.80383 162.825 6.0463 163.36 5.8906C164.519 5.55238 166.029 5.60002 167.171 5.29614C167.826 5.12193 169.065 3.8924 169.812 3.74722C170.24 3.66401 170.625 3.72602 170.979 3.98772C172.098 4.81627 173.102 6.02303 174.151 6.9094C174.621 7.30582 175.906 7.99356 176.505 8.34093L174.993 10.945L175.122 11.1375C176.883 13.7224 179.225 14.5172 181.279 18.4054C182.927 21.5252 182.8 23.5334 183.918 25.9534C186.868 32.3426 189.723 38.7288 192.567 45.1743C193.893 48.1789 194.472 51.3076 195.511 54.3278C197.236 59.1467 199.771 66.7031 199.128 71.7354C198.719 74.9294 189.641 80.7422 186.893 82.8395C182.854 85.9222 177.293 87.7845 172.765 89.9837C172.132 90.2911 171.173 91.1681 171.09 91.8714C171.011 92.4927 171.062 93.1599 171.107 93.7935C167.28 94.9181 164.113 96.3198 162.115 99.9173C162.703 101.831 163.425 103.589 164.03 105.46L170.274 124.793C171.573 128.687 172.649 132.745 174.101 136.574C175.851 141.025 178.369 145.244 180.245 149.617C180.892 151.124 181.44 153.927 181.892 155.527C183.641 161.735 185.827 164.98 190.194 169.466C191.752 171.066 194.625 180.289 195.059 182.648C195.843 186.757 196.098 190.95 195.815 195.125C194.998 206.417 193.894 217.689 192.503 228.926C192.08 232.307 190.981 236.328 190.699 239.486L186.936 282.976C186.774 284.983 186.298 287.098 186.207 289.074C185.833 297.242 185.36 305.323 184.463 313.45C184.284 315.075 183.875 316.698 183.699 318.337L180.427 351.488C180.252 353.153 180.311 354.871 180.242 356.546C179.982 362.844 178.944 369.106 178.504 375.407C178.4 376.901 176.041 379.346 175.503 380.815C174.366 383.918 175.468 387.311 175.591 390.489C175.609 391.163 175.022 393.353 174.898 394.345C172.179 394.415 170.267 395.075 167.661 395.384C164.887 395.713 161.765 395.398 158.96 395.603C153.853 395.844 154.555 396.318 148.53 395.931C146.498 395.803 130.068 395.457 133.657 387.926C134.009 387.189 142.45 384.44 143.739 383.544C148.263 381.312 154.148 379.556 154.857 373.624C155.1 371.599 152.363 369.829 152.655 367.625C152.747 364.699 155.519 362.197 155.748 359.345C155.887 357.61 155.469 355.391 155.378 353.635C155.049 347.363 155.516 341.192 155.982 334.945C156.166 332.483 156.093 330.014 156.327 327.554C156.63 324.389 157.396 321.282 157.535 318.104C157.589 316.869 157.671 315.631 157.75 314.398C159.538 301.462 157.289 288.636 157.673 275.681C157.756 272.87 157.604 270.073 157.742 267.264C157.931 263.881 159.302 258.231 158.274 254.698C158.225 254.531 157.361 254.563 157.084 254.553C154.713 258.637 154.268 263.175 152.639 266.398C151.318 269.016 148.469 273.868 146.968 276.53L134.645 298.287C131.241 304.356 128.316 311.361 124.476 317.165C116.736 328.863 110.13 341.499 101.735 352.707C100.798 353.959 96.7916 355.04 94.9901 356.064C91.8538 361.465 93.1239 359.944 92.0873 364.963L90.054 365.457C89.7157 369.209 88.2047 373.336 87.3813 377.03C86.8407 379.454 86.3916 381.944 85.447 384.241C82.5189 391.362 77.17 392.875 72.225 386.24C67.4757 379.871 65.8191 372.469 66.7169 364.599C67.2839 360.049 70.7197 354.794 71.9449 349.953C72.8889 346.221 71.9938 340.856 72.7488 338.218C73.1944 336.648 74.1306 335.265 75.4204 334.266C78.9747 331.499 82.4643 333.052 85.9175 329.362C88.0562 327.459 88.716 325.189 89.9104 322.682C94.4126 313.235 96.6623 303.603 101.366 294.111C106.318 284.116 108.486 279.745 116.622 271.939C116.949 269.885 117.364 267.537 118.075 265.593C118.81 263.761 120.968 262.321 121.121 260.279C121.679 252.862 120.743 244.99 121.356 237.606C121.838 231.803 122.661 226.015 122.771 220.124C122.824 217.215 123.792 213.86 123.768 210.884C123.844 208.598 123.764 205.73 123.636 203.456C123.502 201.063 122.667 197.766 122.952 195.416C123.31 192.473 123.921 189.698 125.023 186.95C125.609 185.489 126.595 183.205 126.794 181.748C127.312 177.97 127.157 174.024 127.535 170.253C127.599 169.616 128.124 168.035 128.327 167.254L128.203 167.047C126.973 165.025 125.043 163.564 124.086 161.415C123.195 159.284 122.791 157.222 122.63 154.934C122.55 153.797 122.611 151.413 122.274 150.422C120.857 146.26 118.919 142.12 117.204 138.063C116.746 136.979 116.799 135.844 116.353 134.766C115.543 133.022 114.332 131.459 113.255 129.873C110.84 126.315 109.033 122.446 106.709 118.8C103.071 112.98 98.562 106.73 95.5581 100.594C94.4265 98.2829 92.8345 87.4772 93.6102 85.0304C95.2496 79.8597 94.4917 82.4657 92.4884 77.7161C95.2495 75.964 98.6404 74.6044 99.3861 71.3393C99.482 70.9072 99.5582 70.4707 99.6156 70.0317C98.672 68.6806 97.7418 67.4072 96.367 66.5806C93.1031 64.6181 89.1127 63.9975 87.6208 59.94C87.1842 59.0044 87.519 56.7781 87.1834 55.9628C85.6615 52.2684 84.069 48.6454 82.7774 44.854C81.8254 42.0593 83.9331 39.3393 79.8154 39.957C79.5571 39.6837 78.998 39.3281 78.6718 39.1028C79.2863 38.9154 81.0831 38.3789 81.5375 38.1013C85.2954 35.8067 87.4763 31.4091 91.843 29.8342C93.2063 29.3426 95.0531 29.5163 96.2803 29.2867C102.338 28.1535 101.981 27.7065 107.566 30.3426C108.717 29.8435 109.013 29.7238 110.239 29.5164C111.989 29.2423 119.824 26.3729 122.333 25.6463C127.709 23.1761 140.352 20.0699 144.502 17.1864C144.617 16.4811 144.73 15.6605 144.87 14.9709ZM122.289 63.2149C125.473 61.8922 127.945 60.1486 130.807 58.2733C132.721 57.0199 135.404 55.9199 137.154 54.5334C144.44 48.7621 147.773 39.3691 153.818 32.4632C153.993 32.2644 154.787 29.8585 154.925 29.4437C153.914 28.2427 152.317 27.1387 151.013 25.9701C150.013 25.0745 146.499 21.324 145.134 21.1399C143.574 21.1681 141.775 21.955 140.302 22.296C135.623 23.3804 131.039 24.4863 126.488 26.0264C125.392 26.3972 123.845 26.8281 122.708 26.9981L122.506 27.0268C118.264 28.1304 114.419 29.7498 110.43 30.8754C110.393 30.8908 110.356 30.9065 110.319 30.9219L110.137 31.0031C107.87 31.9871 108.742 33.1969 110.091 34.6047C112.027 36.6248 112.939 39.0776 114.339 41.4829C115.541 43.5465 116.857 45.6249 118.066 47.6843C119.318 49.8183 118.339 53.0103 118.484 55.3605C118.655 58.3408 120.138 61.2027 122.289 63.2149ZM157.182 71.6046C158.642 71.6017 160.209 71.645 161.649 71.4576C165.304 71.4391 169.476 69.3245 172.975 68.1421C174.678 67.5664 177.829 67.0939 179.342 66.041C179.838 65.6954 179.789 63.8282 179.725 63.3244C179.618 61.2106 178.761 58.9499 178.513 56.9031C178.244 54.6803 178.717 50.9983 178.411 48.8541C177.61 43.2482 176.713 37.5968 175.804 32.0059C175.557 30.4876 175.043 28.8611 174.791 27.342C170.362 25.5735 171.11 21.8158 162.943 22.852C163.039 24.8354 164.237 26.5827 164.549 28.749C164.964 31.6173 162.794 36.5103 162.834 38.7704C163.007 48.5304 159.911 56.0072 152.923 62.9351C151.698 64.1495 146.345 68.2188 147.176 70.3089C149.593 71.6401 153.834 69.2315 157.182 71.6046Z" fill="#1D3A23"></path>
<path d="M110.239 29.5164C111.989 29.2423 119.824 26.3729 122.333 25.6462C122.357 25.9528 122.38 26.8184 122.506 27.0268C118.264 28.1304 114.419 29.7498 110.43 30.8754C110.492 30.0684 110.639 30.0463 110.239 29.5164Z" fill="#010302"></path>
<path d="M20.6973 68.6894C20.4921 64.6421 22.0922 58.3724 25.1551 55.5908C26.373 54.4849 29.8537 54.3889 31.6431 53.4075L32.3357 54.1335C31.5606 54.8316 30.6506 54.2367 28.4989 56.638C28.3498 61.1153 30.4714 66.854 27.6968 70.8567C26.0838 73.1839 22.1079 69.9803 20.6973 68.6894Z" fill="#1D3A23"></path>
<path d="M31.6431 53.4075C33.0854 52.8607 35.7462 52.3308 37.3552 51.8453C40.8172 50.8002 44.3185 49.8312 47.7869 48.802C51.3576 47.7426 54.731 46.5842 58.2367 45.389C59.5509 44.9409 62.5102 44.2016 63.8537 43.8134C66.5341 43.0389 76.6494 39.2362 78.6717 39.1028C78.998 39.328 79.5571 39.6837 79.8153 39.957C66.9576 43.2704 54.3163 48.2529 41.5756 51.7592C39.3955 52.3592 34.4437 53.8446 32.3357 54.1336L31.6431 53.4075Z" fill="#010302"></path>
</g>
<defs>
<clipPath id="clip0_4_577">
<rect width="220" height="400" fill="white"></rect>
</clipPath>
</defs>
</svg>