<svg xmlns="http://www.w3.org/2000/svg" xmlns:xlink="http://www.w3.org/1999/xlink" width="500" zoomAndPan="magnify" viewBox="0 0 375 374.999991" height="500" preserveAspectRatio="xMidYMid meet" version="1.0"><defs><g></g><clipPath id="1210237520"><path d="M 90 281.644531 L 130 281.644531 L 130 282.394531 L 90 282.394531 Z M 90 281.644531 " clip-rule="nonzero"></path></clipPath><clipPath id="4e1f4b5679"><path d="M 258 282.1875 L 298 282.1875 L 298 282.9375 L 258 282.9375 Z M 258 282.1875 " clip-rule="nonzero"></path></clipPath></defs><rect x="-37.5" width="450" fill="#ffffff" y="-37.499999" height="449.999989" fill-opacity="1"></rect><rect x="-37.5" width="450" fill="#ffffff" y="-37.499999" height="449.999989" fill-opacity="1"></rect><g fill="#000000" fill-opacity="1"><g transform="translate(146.273124, 289.09759)"><g><path d="M 3.773438 -1.9375 C 4.089844 -1.9375 4.402344 -1.96875 4.71875 -2.054688 C 5.035156 -2.121094 5.332031 -2.25 5.628906 -2.433594 C 5.695312 -2.46875 5.730469 -2.515625 5.730469 -2.597656 L 5.730469 -3.941406 C 5.730469 -3.988281 5.710938 -4.039062 5.679688 -4.074219 C 5.644531 -4.105469 5.597656 -4.140625 5.546875 -4.140625 L 5.511719 -4.140625 C 5.414062 -4.140625 5.347656 -4.089844 5.316406 -4.007812 C 5.183594 -3.609375 4.96875 -3.3125 4.6875 -3.113281 C 4.386719 -2.914062 4.089844 -2.816406 3.773438 -2.816406 C 3.527344 -2.816406 3.277344 -2.898438 3.03125 -3.0625 C 2.765625 -3.230469 2.535156 -3.460938 2.335938 -3.757812 C 2.121094 -4.054688 1.953125 -4.421875 1.820312 -4.851562 C 1.6875 -5.28125 1.621094 -5.761719 1.621094 -6.292969 C 1.621094 -6.820312 1.6875 -7.316406 1.835938 -7.75 C 1.96875 -8.179688 2.152344 -8.542969 2.367188 -8.839844 C 2.582031 -9.140625 2.832031 -9.355469 3.097656 -9.519531 C 3.359375 -9.6875 3.609375 -9.769531 3.859375 -9.769531 C 4.238281 -9.769531 4.554688 -9.652344 4.816406 -9.4375 C 5.082031 -9.207031 5.25 -8.941406 5.332031 -8.609375 C 5.363281 -8.492188 5.429688 -8.445312 5.53125 -8.445312 C 5.578125 -8.445312 5.628906 -8.460938 5.664062 -8.492188 C 5.695312 -8.527344 5.730469 -8.578125 5.730469 -8.644531 L 5.730469 -10.398438 C 5.730469 -10.496094 5.679688 -10.546875 5.578125 -10.546875 C 5.546875 -10.546875 5.511719 -10.53125 5.511719 -10.53125 C 5.414062 -10.464844 5.296875 -10.449219 5.164062 -10.449219 C 5.050781 -10.449219 4.96875 -10.449219 4.933594 -10.480469 C 4.769531 -10.53125 4.585938 -10.5625 4.386719 -10.597656 C 4.1875 -10.628906 3.988281 -10.644531 3.773438 -10.644531 C 3.164062 -10.644531 2.632812 -10.53125 2.183594 -10.296875 C 1.722656 -10.066406 1.359375 -9.769531 1.058594 -9.371094 C 0.761719 -8.972656 0.53125 -8.511719 0.378906 -7.980469 C 0.230469 -7.449219 0.164062 -6.886719 0.164062 -6.292969 C 0.164062 -5.695312 0.230469 -5.132812 0.378906 -4.601562 C 0.53125 -4.074219 0.761719 -3.609375 1.058594 -3.210938 C 1.359375 -2.816406 1.722656 -2.5 2.183594 -2.269531 C 2.632812 -2.035156 3.164062 -1.9375 3.773438 -1.9375 Z M 3.773438 -1.9375 "></path></g></g></g><g fill="#000000" fill-opacity="1"><g transform="translate(160.512934, 289.09759)"><g><path d="M 3.410156 -1.9375 C 3.839844 -1.9375 4.273438 -2.035156 4.667969 -2.269531 C 5.066406 -2.5 5.398438 -2.816406 5.695312 -3.210938 C 5.976562 -3.609375 6.207031 -4.074219 6.375 -4.601562 C 6.539062 -5.132812 6.640625 -5.695312 6.640625 -6.292969 C 6.640625 -6.886719 6.539062 -7.449219 6.375 -7.980469 C 6.207031 -8.511719 5.976562 -8.972656 5.695312 -9.371094 C 5.398438 -9.769531 5.066406 -10.066406 4.667969 -10.296875 C 4.273438 -10.53125 3.839844 -10.644531 3.410156 -10.644531 C 2.945312 -10.644531 2.535156 -10.53125 2.136719 -10.296875 C 1.738281 -10.066406 1.40625 -9.769531 1.109375 -9.371094 C 0.8125 -8.972656 0.578125 -8.511719 0.414062 -7.980469 C 0.25 -7.449219 0.164062 -6.886719 0.164062 -6.292969 C 0.164062 -5.695312 0.25 -5.132812 0.414062 -4.601562 C 0.578125 -4.074219 0.8125 -3.609375 1.109375 -3.210938 C 1.40625 -2.816406 1.738281 -2.5 2.136719 -2.269531 C 2.535156 -2.035156 2.945312 -1.9375 3.410156 -1.9375 Z M 3.410156 -2.898438 C 3.144531 -2.898438 2.898438 -2.996094 2.664062 -3.195312 C 2.433594 -3.394531 2.21875 -3.640625 2.054688 -3.972656 C 1.871094 -4.304688 1.722656 -4.667969 1.621094 -5.066406 C 1.523438 -5.464844 1.472656 -5.878906 1.472656 -6.292969 C 1.472656 -6.6875 1.523438 -7.101562 1.621094 -7.5 C 1.722656 -7.898438 1.871094 -8.261719 2.054688 -8.59375 C 2.21875 -8.925781 2.433594 -9.1875 2.664062 -9.386719 C 2.898438 -9.585938 3.144531 -9.703125 3.410156 -9.703125 C 3.660156 -9.703125 3.90625 -9.585938 4.140625 -9.386719 C 4.371094 -9.1875 4.570312 -8.925781 4.75 -8.59375 C 4.917969 -8.261719 5.066406 -7.898438 5.164062 -7.5 C 5.265625 -7.101562 5.332031 -6.6875 5.332031 -6.292969 C 5.332031 -5.878906 5.265625 -5.464844 5.164062 -5.066406 C 5.066406 -4.667969 4.917969 -4.304688 4.75 -3.972656 C 4.570312 -3.640625 4.371094 -3.394531 4.140625 -3.195312 C 3.90625 -2.996094 3.660156 -2.898438 3.410156 -2.898438 Z M 3.410156 -2.898438 "></path></g></g></g><g fill="#000000" fill-opacity="1"><g transform="translate(175.6633, 289.09759)"><g><path d="M 0.644531 -1.9375 L 2.75 -1.9375 C 2.847656 -1.9375 2.898438 -1.988281 2.898438 -2.085938 C 2.898438 -2.121094 2.882812 -2.152344 2.847656 -2.183594 C 2.75 -2.25 2.683594 -2.316406 2.617188 -2.417969 C 2.550781 -2.484375 2.5 -2.550781 2.449219 -2.648438 C 2.402344 -2.75 2.382812 -2.847656 2.382812 -2.945312 L 2.382812 -7.203125 C 2.5 -6.902344 2.648438 -6.554688 2.832031 -6.175781 C 3.011719 -5.796875 3.195312 -5.414062 3.394531 -5.015625 C 3.578125 -4.621094 3.757812 -4.238281 3.925781 -3.875 C 4.089844 -3.511719 4.238281 -3.179688 4.371094 -2.914062 C 4.46875 -3.179688 4.621094 -3.511719 4.800781 -3.875 C 4.96875 -4.238281 5.148438 -4.621094 5.347656 -5.015625 C 5.53125 -5.414062 5.710938 -5.796875 5.894531 -6.175781 C 6.078125 -6.554688 6.226562 -6.902344 6.359375 -7.203125 L 6.359375 -2.945312 C 6.359375 -2.847656 6.324219 -2.75 6.273438 -2.648438 C 6.226562 -2.550781 6.175781 -2.484375 6.109375 -2.417969 C 6.042969 -2.351562 5.992188 -2.285156 5.945312 -2.25 L 5.878906 -2.183594 C 5.828125 -2.136719 5.8125 -2.085938 5.84375 -2.019531 C 5.878906 -1.953125 5.925781 -1.9375 5.992188 -1.9375 L 8.097656 -1.9375 C 8.128906 -1.9375 8.164062 -1.953125 8.195312 -1.988281 C 8.210938 -2.019531 8.230469 -2.054688 8.230469 -2.085938 C 8.230469 -2.121094 8.210938 -2.152344 8.195312 -2.183594 L 8.113281 -2.25 C 8.0625 -2.285156 8.011719 -2.351562 7.949219 -2.417969 C 7.882812 -2.484375 7.832031 -2.550781 7.796875 -2.648438 C 7.75 -2.75 7.730469 -2.847656 7.730469 -2.945312 L 7.730469 -4.238281 C 7.730469 -4.585938 7.714844 -4.882812 7.714844 -5.132812 C 7.714844 -5.382812 7.714844 -5.597656 7.714844 -5.777344 L 7.714844 -6.804688 C 7.714844 -6.96875 7.714844 -7.1875 7.714844 -7.433594 C 7.714844 -7.683594 7.730469 -7.980469 7.730469 -8.34375 L 7.730469 -9.636719 C 7.730469 -9.734375 7.75 -9.816406 7.796875 -9.917969 C 7.832031 -10.015625 7.882812 -10.101562 7.949219 -10.164062 C 8.011719 -10.230469 8.0625 -10.28125 8.113281 -10.332031 L 8.195312 -10.398438 C 8.230469 -10.429688 8.246094 -10.480469 8.210938 -10.546875 C 8.179688 -10.613281 8.144531 -10.644531 8.097656 -10.644531 L 5.992188 -10.644531 C 5.925781 -10.644531 5.894531 -10.628906 5.878906 -10.597656 C 5.84375 -10.5625 5.84375 -10.53125 5.84375 -10.496094 C 5.84375 -10.449219 5.84375 -10.414062 5.878906 -10.398438 C 5.878906 -10.398438 5.894531 -10.382812 5.910156 -10.382812 C 6.109375 -10.199219 6.226562 -9.984375 6.226562 -9.71875 C 6.226562 -9.585938 6.191406 -9.488281 6.160156 -9.386719 C 6.058594 -9.15625 5.925781 -8.875 5.777344 -8.542969 C 5.613281 -8.195312 5.445312 -7.832031 5.28125 -7.449219 C 5.117188 -7.070312 4.949219 -6.6875 4.785156 -6.324219 C 4.621094 -5.960938 4.46875 -5.628906 4.371094 -5.363281 C 4.238281 -5.628906 4.105469 -5.960938 3.941406 -6.324219 C 3.773438 -6.6875 3.59375 -7.070312 3.425781 -7.449219 C 3.261719 -7.832031 3.097656 -8.195312 2.945312 -8.542969 C 2.78125 -8.875 2.664062 -9.15625 2.582031 -9.386719 C 2.535156 -9.488281 2.515625 -9.585938 2.515625 -9.71875 C 2.515625 -9.984375 2.617188 -10.199219 2.832031 -10.382812 L 2.847656 -10.398438 C 2.898438 -10.429688 2.914062 -10.480469 2.882812 -10.546875 C 2.847656 -10.613281 2.816406 -10.644531 2.75 -10.644531 L 0.644531 -10.644531 C 0.546875 -10.644531 0.496094 -10.597656 0.496094 -10.496094 C 0.496094 -10.464844 0.511719 -10.429688 0.546875 -10.398438 C 0.628906 -10.316406 0.710938 -10.230469 0.777344 -10.164062 C 0.828125 -10.082031 0.878906 -10 0.925781 -9.917969 C 0.976562 -9.816406 1.011719 -9.734375 1.011719 -9.636719 L 1.011719 -2.945312 C 1.011719 -2.847656 0.976562 -2.75 0.925781 -2.648438 C 0.878906 -2.550781 0.828125 -2.484375 0.777344 -2.417969 C 0.710938 -2.316406 0.628906 -2.25 0.546875 -2.183594 C 0.480469 -2.136719 0.464844 -2.085938 0.496094 -2.019531 C 0.53125 -1.953125 0.578125 -1.9375 0.644531 -1.9375 Z M 0.644531 -1.9375 "></path></g></g></g><g fill="#000000" fill-opacity="1"><g transform="translate(192.734105, 289.09759)"><g><path d="M 0.644531 -1.9375 L 2.730469 -1.9375 C 2.78125 -1.9375 2.816406 -1.953125 2.847656 -1.988281 C 2.863281 -2.019531 2.882812 -2.054688 2.882812 -2.085938 C 2.882812 -2.121094 2.863281 -2.152344 2.847656 -2.183594 L 2.765625 -2.25 C 2.699219 -2.285156 2.648438 -2.351562 2.597656 -2.417969 C 2.535156 -2.484375 2.484375 -2.550781 2.433594 -2.648438 C 2.382812 -2.75 2.367188 -2.847656 2.367188 -2.945312 L 2.367188 -5.464844 C 2.796875 -5.464844 3.195312 -5.53125 3.527344 -5.664062 C 3.859375 -5.796875 4.121094 -5.992188 4.355469 -6.226562 C 4.570312 -6.457031 4.734375 -6.722656 4.851562 -7.035156 C 4.949219 -7.335938 5.015625 -7.664062 5.015625 -8.03125 C 5.015625 -8.425781 4.949219 -8.792969 4.816406 -9.121094 C 4.6875 -9.453125 4.503906 -9.71875 4.273438 -9.933594 C 4.039062 -10.148438 3.792969 -10.316406 3.492188 -10.429688 C 3.195312 -10.546875 2.863281 -10.613281 2.535156 -10.613281 C 2.269531 -10.613281 1.988281 -10.613281 1.6875 -10.628906 C 1.375 -10.628906 1.027344 -10.644531 0.644531 -10.644531 C 0.546875 -10.644531 0.496094 -10.578125 0.496094 -10.464844 C 0.496094 -10.398438 0.496094 -10.363281 0.53125 -10.347656 L 0.613281 -10.265625 C 0.664062 -10.214844 0.710938 -10.148438 0.777344 -10.066406 C 0.828125 -9.984375 0.878906 -9.882812 0.925781 -9.785156 C 0.976562 -9.667969 1.011719 -9.554688 1.011719 -9.4375 L 1.011719 -2.945312 C 1.011719 -2.847656 0.976562 -2.75 0.925781 -2.648438 C 0.878906 -2.550781 0.828125 -2.484375 0.777344 -2.417969 C 0.710938 -2.351562 0.664062 -2.285156 0.613281 -2.25 L 0.53125 -2.183594 C 0.480469 -2.136719 0.464844 -2.085938 0.496094 -2.019531 C 0.53125 -1.953125 0.578125 -1.9375 0.644531 -1.9375 Z M 2.535156 -6.308594 C 2.449219 -6.308594 2.382812 -6.308594 2.351562 -6.324219 L 2.351562 -9.753906 C 2.382812 -9.753906 2.449219 -9.769531 2.550781 -9.769531 C 2.730469 -9.769531 2.898438 -9.703125 3.046875 -9.601562 C 3.179688 -9.503906 3.3125 -9.371094 3.410156 -9.207031 C 3.511719 -9.039062 3.578125 -8.839844 3.625 -8.625 C 3.675781 -8.410156 3.707031 -8.195312 3.707031 -7.980469 C 3.707031 -7.765625 3.675781 -7.566406 3.640625 -7.367188 C 3.59375 -7.167969 3.527344 -6.988281 3.425781 -6.820312 C 3.328125 -6.65625 3.195312 -6.539062 3.046875 -6.441406 C 2.898438 -6.339844 2.730469 -6.308594 2.535156 -6.308594 Z M 2.535156 -6.308594 "></path></g></g></g><g fill="#000000" fill-opacity="1"><g transform="translate(206.262023, 289.09759)"><g><path d="M 0.230469 -1.9375 L 1.886719 -1.9375 C 1.921875 -1.9375 1.953125 -1.953125 1.988281 -1.988281 C 2.003906 -2.019531 2.019531 -2.054688 2.019531 -2.085938 C 2.019531 -2.136719 1.988281 -2.183594 1.953125 -2.21875 L 1.789062 -2.316406 C 1.65625 -2.402344 1.574219 -2.515625 1.523438 -2.648438 C 1.457031 -2.78125 1.441406 -2.914062 1.472656 -3.0625 L 1.753906 -4.636719 L 3.34375 -4.636719 C 3.425781 -4.207031 3.492188 -3.824219 3.558594 -3.527344 C 3.625 -3.210938 3.660156 -3.011719 3.660156 -2.929688 C 3.660156 -2.664062 3.558594 -2.484375 3.359375 -2.351562 C 3.261719 -2.285156 3.195312 -2.234375 3.164062 -2.21875 C 3.113281 -2.183594 3.097656 -2.136719 3.097656 -2.085938 C 3.097656 -2.054688 3.097656 -2.019531 3.128906 -1.988281 C 3.144531 -1.953125 3.179688 -1.9375 3.246094 -1.9375 L 5.296875 -1.9375 C 5.398438 -1.9375 5.445312 -1.988281 5.445312 -2.085938 C 5.445312 -2.085938 5.429688 -2.121094 5.414062 -2.167969 L 5.183594 -2.515625 C 5.097656 -2.597656 5.050781 -2.699219 5.050781 -2.816406 C 5.015625 -2.945312 4.96875 -3.179688 4.917969 -3.476562 C 4.851562 -3.773438 4.785156 -4.105469 4.71875 -4.503906 C 4.652344 -4.902344 4.570312 -5.316406 4.488281 -5.777344 L 4.222656 -7.152344 C 4.121094 -7.617188 4.039062 -8.0625 3.972656 -8.492188 C 3.890625 -8.925781 3.824219 -9.304688 3.757812 -9.652344 C 3.757812 -9.667969 3.742188 -9.6875 3.742188 -9.71875 C 3.742188 -9.734375 3.742188 -9.753906 3.742188 -9.785156 C 3.742188 -9.933594 3.792969 -10.082031 3.890625 -10.214844 C 3.957031 -10.296875 4.007812 -10.363281 4.039062 -10.398438 C 4.074219 -10.449219 4.074219 -10.496094 4.039062 -10.5625 C 4.007812 -10.613281 3.972656 -10.644531 3.90625 -10.644531 L 1.523438 -10.644531 C 1.425781 -10.644531 1.375 -10.597656 1.375 -10.496094 C 1.375 -10.449219 1.375 -10.414062 1.40625 -10.398438 C 1.472656 -10.332031 1.523438 -10.265625 1.554688 -10.230469 C 1.707031 -10.050781 1.773438 -9.851562 1.738281 -9.621094 C 1.671875 -9.289062 1.589844 -8.90625 1.523438 -8.492188 C 1.441406 -8.0625 1.359375 -7.632812 1.273438 -7.1875 C 1.191406 -6.738281 1.109375 -6.292969 1.027344 -5.84375 C 0.945312 -5.382812 0.859375 -4.96875 0.792969 -4.570312 C 0.726562 -4.171875 0.664062 -3.824219 0.597656 -3.511719 C 0.53125 -3.195312 0.496094 -2.964844 0.464844 -2.796875 C 0.429688 -2.683594 0.398438 -2.582031 0.347656 -2.515625 C 0.316406 -2.449219 0.265625 -2.402344 0.230469 -2.335938 C 0.183594 -2.269531 0.148438 -2.21875 0.117188 -2.167969 C 0.0664062 -2.121094 0.0664062 -2.070312 0.0976562 -2.019531 C 0.132812 -1.953125 0.164062 -1.9375 0.230469 -1.9375 Z M 3.179688 -5.5625 L 1.921875 -5.5625 C 2.019531 -6.125 2.121094 -6.722656 2.234375 -7.316406 C 2.335938 -7.914062 2.433594 -8.460938 2.535156 -8.957031 C 2.617188 -8.425781 2.714844 -7.882812 2.832031 -7.285156 C 2.945312 -6.6875 3.0625 -6.125 3.179688 -5.5625 Z M 3.179688 -5.5625 "></path></g></g></g><g fill="#000000" fill-opacity="1"><g transform="translate(220.137608, 289.09759)"><g><path d="M 0.644531 -1.9375 L 2.683594 -1.9375 C 2.714844 -1.9375 2.75 -1.953125 2.78125 -1.988281 C 2.796875 -2.019531 2.816406 -2.054688 2.816406 -2.085938 C 2.816406 -2.121094 2.796875 -2.152344 2.78125 -2.183594 L 2.699219 -2.25 C 2.648438 -2.285156 2.597656 -2.351562 2.535156 -2.417969 C 2.46875 -2.484375 2.417969 -2.550781 2.382812 -2.648438 C 2.335938 -2.75 2.316406 -2.847656 2.316406 -2.945312 C 2.316406 -3.476562 2.300781 -3.90625 2.300781 -4.253906 C 2.300781 -4.601562 2.300781 -4.902344 2.300781 -5.132812 L 2.300781 -7.351562 C 2.632812 -6.574219 2.964844 -5.828125 3.292969 -5.132812 C 3.625 -4.421875 3.925781 -3.757812 4.1875 -3.164062 C 4.207031 -3.097656 4.222656 -3.046875 4.238281 -2.996094 C 4.238281 -2.945312 4.253906 -2.898438 4.253906 -2.847656 C 4.253906 -2.582031 4.15625 -2.382812 3.957031 -2.21875 L 3.925781 -2.183594 C 3.875 -2.136719 3.859375 -2.085938 3.890625 -2.019531 C 3.90625 -1.953125 3.957031 -1.9375 4.023438 -1.9375 L 6.058594 -1.9375 C 6.09375 -1.9375 6.125 -1.953125 6.160156 -1.988281 C 6.175781 -2.019531 6.191406 -2.054688 6.191406 -2.085938 C 6.191406 -2.121094 6.175781 -2.152344 6.160156 -2.183594 L 6.078125 -2.25 C 6.027344 -2.285156 5.976562 -2.351562 5.910156 -2.417969 C 5.84375 -2.484375 5.796875 -2.550781 5.761719 -2.648438 C 5.710938 -2.75 5.695312 -2.847656 5.695312 -2.945312 L 5.695312 -4.238281 C 5.695312 -4.585938 5.679688 -4.882812 5.679688 -5.132812 C 5.679688 -5.382812 5.679688 -5.597656 5.679688 -5.777344 L 5.679688 -6.804688 C 5.679688 -6.96875 5.679688 -7.1875 5.679688 -7.433594 C 5.679688 -7.683594 5.695312 -7.980469 5.695312 -8.34375 L 5.695312 -9.636719 C 5.695312 -9.734375 5.710938 -9.816406 5.761719 -9.917969 C 5.796875 -10.015625 5.84375 -10.101562 5.910156 -10.164062 C 5.976562 -10.230469 6.027344 -10.28125 6.078125 -10.332031 L 6.160156 -10.398438 C 6.191406 -10.429688 6.207031 -10.480469 6.175781 -10.546875 C 6.144531 -10.613281 6.109375 -10.644531 6.058594 -10.644531 L 4.023438 -10.644531 C 3.925781 -10.644531 3.890625 -10.597656 3.890625 -10.496094 C 3.890625 -10.449219 3.890625 -10.414062 3.925781 -10.398438 C 4.007812 -10.316406 4.089844 -10.230469 4.15625 -10.164062 C 4.207031 -10.082031 4.253906 -10 4.304688 -9.917969 C 4.355469 -9.816406 4.386719 -9.734375 4.386719 -9.636719 L 4.386719 -5.214844 C 4.054688 -5.960938 3.726562 -6.6875 3.394531 -7.382812 C 3.0625 -8.078125 2.765625 -8.757812 2.5 -9.386719 C 2.449219 -9.488281 2.433594 -9.585938 2.433594 -9.71875 C 2.433594 -9.984375 2.535156 -10.199219 2.75 -10.382812 L 2.78125 -10.398438 C 2.816406 -10.429688 2.832031 -10.480469 2.796875 -10.546875 C 2.765625 -10.613281 2.730469 -10.644531 2.683594 -10.644531 L 0.644531 -10.644531 C 0.546875 -10.644531 0.496094 -10.597656 0.496094 -10.496094 C 0.496094 -10.464844 0.511719 -10.429688 0.546875 -10.398438 C 0.628906 -10.316406 0.710938 -10.230469 0.777344 -10.164062 C 0.828125 -10.082031 0.878906 -10 0.925781 -9.917969 C 0.976562 -9.816406 1.011719 -9.734375 1.011719 -9.636719 L 1.011719 -2.945312 C 1.011719 -2.847656 0.976562 -2.75 0.925781 -2.648438 C 0.878906 -2.550781 0.828125 -2.484375 0.777344 -2.417969 C 0.710938 -2.316406 0.628906 -2.25 0.546875 -2.183594 C 0.480469 -2.136719 0.464844 -2.085938 0.496094 -2.019531 C 0.53125 -1.953125 0.578125 -1.9375 0.644531 -1.9375 Z M 0.644531 -1.9375 "></path></g></g></g><g fill="#000000" fill-opacity="1"><g transform="translate(235.172077, 289.09759)"><g><path d="M 1.902344 -1.9375 L 3.972656 -1.9375 C 4.007812 -1.9375 4.039062 -1.953125 4.074219 -1.988281 C 4.089844 -2.019531 4.105469 -2.054688 4.105469 -2.085938 C 4.105469 -2.121094 4.089844 -2.152344 4.074219 -2.183594 L 3.988281 -2.25 C 3.941406 -2.285156 3.890625 -2.351562 3.824219 -2.417969 C 3.757812 -2.484375 3.707031 -2.550781 3.675781 -2.648438 C 3.625 -2.75 3.609375 -2.847656 3.609375 -2.945312 L 3.609375 -6.472656 C 3.792969 -6.839844 3.972656 -7.1875 4.15625 -7.535156 C 4.339844 -7.882812 4.503906 -8.195312 4.652344 -8.492188 C 4.800781 -8.773438 4.933594 -9.007812 5.035156 -9.207031 C 5.132812 -9.386719 5.199219 -9.503906 5.230469 -9.570312 C 5.296875 -9.71875 5.398438 -9.867188 5.496094 -10 C 5.597656 -10.132812 5.695312 -10.265625 5.828125 -10.398438 L 5.828125 -10.414062 C 5.878906 -10.464844 5.894531 -10.515625 5.878906 -10.5625 C 5.84375 -10.613281 5.8125 -10.644531 5.761719 -10.644531 L 4.121094 -10.644531 C 4.089844 -10.644531 4.054688 -10.628906 4.007812 -10.613281 C 3.957031 -10.578125 3.941406 -10.546875 3.941406 -10.496094 C 3.941406 -10.429688 3.988281 -10.363281 4.105469 -10.265625 C 4.222656 -10.164062 4.289062 -10.015625 4.289062 -9.835938 C 4.289062 -9.703125 4.253906 -9.601562 4.222656 -9.519531 C 4.121094 -9.320312 4.007812 -9.121094 3.90625 -8.925781 C 3.808594 -8.726562 3.691406 -8.511719 3.578125 -8.277344 C 3.445312 -8.03125 3.3125 -7.765625 3.164062 -7.484375 C 2.964844 -7.898438 2.78125 -8.277344 2.617188 -8.644531 C 2.449219 -8.992188 2.335938 -9.289062 2.234375 -9.519531 C 2.167969 -9.652344 2.152344 -9.753906 2.152344 -9.851562 C 2.152344 -10 2.203125 -10.132812 2.316406 -10.230469 C 2.433594 -10.332031 2.5 -10.429688 2.5 -10.496094 C 2.5 -10.546875 2.46875 -10.578125 2.433594 -10.613281 C 2.382812 -10.628906 2.351562 -10.644531 2.335938 -10.644531 L 0.28125 -10.644531 C 0.199219 -10.644531 0.164062 -10.597656 0.164062 -10.53125 C 0.164062 -10.480469 0.183594 -10.449219 0.214844 -10.414062 L 0.378906 -10.230469 C 0.445312 -10.164062 0.496094 -10.117188 0.546875 -10.066406 C 0.628906 -9.984375 0.695312 -9.882812 0.761719 -9.769531 C 0.992188 -9.238281 1.226562 -8.675781 1.488281 -8.113281 C 1.753906 -7.550781 2.003906 -7.003906 2.269531 -6.472656 L 2.269531 -5.097656 C 2.269531 -4.816406 2.25 -4.503906 2.25 -4.15625 C 2.25 -3.808594 2.25 -3.410156 2.25 -2.945312 C 2.25 -2.847656 2.21875 -2.75 2.183594 -2.648438 C 2.136719 -2.550781 2.085938 -2.484375 2.019531 -2.417969 C 1.953125 -2.351562 1.902344 -2.285156 1.855469 -2.25 L 1.789062 -2.183594 C 1.738281 -2.136719 1.722656 -2.085938 1.753906 -2.019531 C 1.789062 -1.953125 1.835938 -1.9375 1.902344 -1.9375 Z M 1.902344 -1.9375 "></path></g></g></g><g clip-path="url(#1210237520)"><path fill="#000000" d="M 91.796875 282.308594 C 92.867188 282.308594 94.402344 282.445312 96.234375 282.488281 C 98.070312 282.535156 100.226562 282.617188 102.523438 282.640625 C 104.824219 282.667969 107.277344 282.695312 109.710938 282.707031 C 112.148438 282.714844 114.617188 282.707031 116.898438 282.640625 C 119.183594 282.578125 121.339844 282.535156 123.1875 282.488281 C 125.039062 282.445312 126.585938 282.355469 127.664062 282.308594 L 129.34375 282.21875 L 127.664062 282.121094 C 126.585938 282.121094 125.058594 281.988281 123.214844 281.949219 C 121.375 281.914062 119.226562 281.824219 116.925781 281.789062 C 114.625 281.753906 112.175781 281.789062 109.738281 281.734375 C 107.304688 281.679688 104.832031 281.734375 102.550781 281.796875 C 100.269531 281.859375 98.058594 281.90625 96.261719 281.949219 C 94.464844 281.996094 92.867188 282.085938 91.796875 282.121094 L 90.109375 282.21875 Z M 91.796875 282.308594 " fill-opacity="1" fill-rule="nonzero"></path></g><g clip-path="url(#4e1f4b5679)"><path fill="#000000" d="M 259.832031 282.851562 C 260.898438 282.851562 262.4375 282.988281 264.269531 283.03125 C 266.101562 283.078125 268.257812 283.160156 270.558594 283.1875 C 272.859375 283.210938 275.3125 283.238281 277.746094 283.25 C 280.179688 283.257812 282.652344 283.25 284.933594 283.1875 C 287.214844 283.121094 289.371094 283.078125 291.222656 283.03125 C 293.074219 282.988281 294.617188 282.898438 295.695312 282.851562 L 297.375 282.761719 L 295.695312 282.664062 C 294.617188 282.664062 293.089844 282.53125 291.25 282.492188 C 289.40625 282.457031 287.261719 282.367188 284.960938 282.332031 C 282.660156 282.296875 280.207031 282.332031 277.773438 282.277344 C 275.335938 282.222656 272.867188 282.277344 270.585938 282.339844 C 268.304688 282.402344 266.09375 282.449219 264.296875 282.492188 C 262.5 282.539062 260.898438 282.628906 259.832031 282.664062 L 258.140625 282.761719 Z M 259.832031 282.851562 " fill-opacity="1" fill-rule="nonzero"></path></g><path fill="#000000" d="M 145.722656 172.710938 C 145.890625 171.191406 145.890625 169.605469 146.265625 168.128906 C 146.515625 167.085938 147.097656 166.042969 147.804688 165.230469 C 149.992188 162.730469 150.347656 159.730469 150.597656 156.605469 C 150.703125 155.316406 151.117188 153.917969 151.828125 152.855469 C 153.535156 150.273438 154.578125 147.566406 154.785156 144.460938 C 154.890625 143.085938 155.515625 141.753906 155.972656 140.398438 C 156.597656 138.503906 157.765625 137.003906 159.140625 135.503906 C 161.304688 133.148438 163.015625 130.417969 163.015625 127.023438 C 163.015625 126.605469 162.890625 126.210938 162.867188 125.792969 C 162.765625 123.503906 163.742188 121.667969 165.203125 119.941406 C 167.136719 117.648438 168.847656 115.085938 169.222656 112.085938 C 169.574219 109.355469 171.097656 107.167969 171.910156 104.648438 C 172.449219 102.941406 173.136719 101.253906 173.910156 99.648438 C 174.324219 98.773438 174.949219 97.898438 175.699219 97.316406 C 178.242188 95.355469 179.972656 92.855469 180.929688 89.835938 C 181.804688 87.042969 184.011719 85.691406 186.410156 84.523438 C 187.242188 84.128906 188.074219 84.191406 188.886719 84.898438 C 189.972656 85.816406 191.367188 86.355469 192.347656 87.316406 C 194.199219 89.128906 195.824219 91.148438 197.597656 93.066406 C 199.097656 94.667969 199.929688 96.605469 200.679688 98.628906 C 201.46875 100.730469 202.886719 102.417969 204.53125 103.960938 C 205.804688 105.148438 206.742188 106.710938 207.804688 108.105469 C 207.886719 108.230469 207.90625 108.441406 207.867188 108.605469 C 207.46875 110.316406 208.242188 111.710938 209.03125 113.105469 C 209.636719 114.167969 210.136719 115.253906 210.761719 116.292969 C 211.054688 116.773438 211.449219 117.316406 211.929688 117.566406 C 213.367188 118.292969 213.929688 119.667969 214.429688 120.980469 C 215.054688 122.585938 215.742188 124.148438 216.96875 125.335938 C 219.429688 127.667969 220.324219 130.566406 220.304688 133.855469 C 220.28125 136.253906 220.78125 138.566406 222.324219 140.503906 C 222.78125 141.085938 223.386719 141.566406 223.96875 142.023438 C 225.03125 142.878906 225.40625 144.105469 225.449219 145.316406 C 225.511719 147.210938 226.074219 148.898438 226.992188 150.523438 C 227.53125 151.460938 227.929688 152.523438 228.199219 153.585938 C 228.636719 155.355469 229.199219 157.191406 229.179688 158.980469 C 229.179688 161.816406 229.96875 164.355469 230.992188 166.917969 C 231.21875 167.503906 231.304688 168.167969 231.34375 168.816406 C 231.40625 169.753906 231.304688 170.691406 231.34375 171.628906 C 231.429688 173.167969 231.929688 174.605469 233.242188 175.523438 C 234.261719 176.230469 234.53125 177.085938 234.261719 178.191406 C 233.761719 180.210938 234.449219 182.023438 235.199219 183.816406 C 235.492188 184.523438 235.84375 185.210938 236.300781 185.816406 C 237.699219 187.691406 237.96875 189.691406 237.675781 191.980469 C 237.363281 194.460938 237.761719 196.898438 239.175781 199.066406 C 240.175781 200.585938 240.425781 202.273438 240.488281 204.023438 C 240.59375 206.542969 240.199219 209.085938 241.09375 211.542969 C 241.363281 212.253906 241.53125 213.042969 241.949219 213.648438 C 242.863281 214.960938 242.96875 216.398438 242.988281 217.898438 C 243.03125 220.085938 241.28125 221.917969 239.136719 221.792969 C 237.425781 221.691406 235.824219 222.066406 234.304688 222.792969 C 233.03125 223.398438 231.761719 224.042969 230.53125 224.730469 C 229.117188 225.523438 226.617188 224.441406 226.179688 222.878906 C 225.886719 221.816406 225.46875 220.773438 225.03125 219.773438 C 224.824219 219.316406 224.511719 218.730469 224.09375 218.566406 C 222.21875 217.773438 221.617188 215.898438 220.46875 214.503906 C 219.21875 212.980469 216.21875 211.691406 214.53125 212.585938 C 212.824219 213.480469 210.949219 214.460938 210.40625 216.667969 C 210.324219 216.980469 210.179688 217.335938 209.949219 217.566406 C 209.011719 218.503906 208.84375 219.605469 209.21875 220.816406 C 209.574219 221.960938 209.90625 223.128906 210.367188 224.253906 C 211.199219 226.316406 210.28125 228.855469 208.34375 229.941406 C 206.40625 231.042969 204.304688 231.460938 202.15625 231.898438 C 200.660156 232.210938 199.347656 231.917969 197.910156 231.691406 C 196.511719 231.480469 195.035156 231.855469 193.597656 231.917969 C 192.699219 231.960938 191.679688 232.128906 190.886719 231.816406 C 187.785156 230.566406 184.574219 230.398438 181.285156 230.566406 C 181.035156 230.585938 180.761719 230.523438 180.554688 230.628906 C 179.261719 231.355469 178.324219 230.523438 177.324219 229.917969 C 176.410156 229.378906 175.492188 228.816406 174.535156 228.378906 C 173.972656 228.128906 173.679688 227.855469 173.761719 227.253906 C 173.929688 226.023438 174.160156 224.816406 174.222656 223.585938 C 174.285156 222.355469 174.472656 221.042969 174.074219 219.941406 C 173.511719 218.316406 172.574219 216.773438 171.636719 215.292969 C 171.304688 214.773438 170.554688 214.441406 169.910156 214.230469 C 169.035156 213.960938 168.117188 213.792969 167.199219 213.730469 C 165.429688 213.628906 163.285156 215.316406 162.554688 217.398438 C 162.304688 218.105469 161.929688 218.480469 161.242188 218.667969 C 158.617188 219.378906 156.890625 220.941406 156.304688 223.710938 C 156.179688 224.316406 155.492188 224.898438 154.910156 225.253906 C 153.828125 225.898438 152.597656 226.148438 151.304688 225.960938 C 150.722656 225.878906 150.140625 225.792969 149.554688 225.792969 C 148.328125 225.753906 147.472656 225.230469 146.535156 224.335938 C 145.097656 222.917969 143.347656 221.792969 141.617188 220.730469 C 140.929688 220.316406 139.953125 220.378906 139.140625 220.128906 C 138.742188 220.003906 138.367188 219.710938 138.097656 219.398438 C 137.035156 218.210938 136.015625 216.980469 135.015625 215.753906 C 134.804688 215.480469 134.597656 215.066406 134.660156 214.773438 C 134.828125 213.835938 135.015625 212.855469 135.410156 211.980469 C 136.703125 209.023438 137.410156 205.960938 137.617188 202.753906 C 137.765625 200.335938 138.117188 197.941406 138.410156 195.542969 C 138.429688 195.292969 138.578125 195.042969 138.703125 194.792969 C 139.660156 193.042969 140.890625 191.398438 141.515625 189.542969 C 142.160156 187.605469 142.304688 185.503906 142.535156 183.441406 C 142.679688 182.148438 142.972656 181.042969 143.804688 179.941406 C 145.367188 177.855469 145.890625 175.378906 145.929688 172.792969 C 145.910156 172.730469 145.804688 172.710938 145.722656 172.710938 Z M 177.804688 227.273438 C 179.324219 227.355469 180.679688 227.417969 182.011719 227.542969 C 184.867188 227.773438 187.699219 228.042969 190.554688 228.253906 C 192.617188 228.398438 194.679688 228.523438 196.742188 228.542969 C 197.886719 228.566406 199.054688 228.378906 200.222656 228.253906 C 202.011719 228.066406 203.742188 227.210938 205.617188 227.773438 C 205.824219 227.835938 206.34375 227.503906 206.386719 227.292969 C 206.636719 226.167969 206.886719 225.023438 206.90625 223.878906 C 206.929688 221.566406 206.71875 219.253906 206.742188 216.917969 C 206.761719 215.441406 207.28125 214.066406 208.21875 212.878906 C 211.074219 209.316406 217.03125 208.878906 220.429688 211.585938 C 221.242188 212.230469 222.09375 212.835938 222.949219 213.417969 C 224.53125 214.480469 226.054688 215.605469 227.054688 217.292969 C 227.679688 218.355469 228.28125 219.460938 228.84375 220.566406 C 229.117188 221.085938 229.386719 221.355469 230.011719 221.355469 C 233.117188 221.292969 235.867188 220.085938 238.550781 218.710938 C 238.699219 218.628906 238.863281 218.398438 238.863281 218.230469 C 238.84375 217.398438 238.863281 216.566406 238.71875 215.753906 C 238.324219 213.148438 237.863281 210.566406 237.40625 207.980469 C 237.011719 205.773438 236.59375 203.566406 236.15625 201.355469 C 235.804688 199.585938 235.40625 197.835938 235.03125 196.085938 C 234.429688 193.273438 233.90625 190.441406 233.21875 187.648438 C 232.261719 183.792969 231.15625 179.980469 230.09375 176.148438 C 229.261719 173.148438 228.367188 170.167969 227.554688 167.148438 C 226.617188 163.585938 225.761719 159.980469 224.84375 156.398438 C 224.179688 153.816406 223.65625 151.191406 222.78125 148.667969 C 221.367188 144.542969 219.617188 140.542969 218.199219 136.417969 C 216.886719 132.566406 215.40625 128.773438 213.011719 125.460938 C 210.96875 122.628906 209.34375 119.605469 207.90625 116.441406 C 207.554688 115.648438 207.386719 114.773438 206.949219 114.042969 C 205.699219 112.023438 204.324219 110.085938 203.03125 108.085938 C 200.949219 104.816406 198.949219 101.480469 196.785156 98.273438 C 194.910156 95.503906 192.824219 92.855469 190.824219 90.167969 C 190.324219 89.503906 189.824219 88.835938 189.285156 88.210938 C 188.304688 87.085938 186.761719 87.003906 185.722656 88.085938 C 185.074219 88.753906 184.492188 89.503906 183.972656 90.273438 C 182.449219 92.460938 180.949219 94.667969 179.492188 96.878906 C 178.636719 98.167969 177.761719 99.480469 177.074219 100.855469 C 176.285156 102.503906 175.742188 104.273438 174.992188 105.941406 C 173.949219 108.230469 172.804688 110.480469 171.722656 112.753906 C 170.511719 115.292969 169.304688 117.816406 168.136719 120.378906 C 167.347656 122.105469 166.535156 123.835938 165.953125 125.648438 C 164.953125 128.730469 164.160156 131.878906 162.640625 134.773438 C 161.742188 136.460938 160.847656 138.148438 160.117188 139.898438 C 159.140625 142.292969 158.328125 144.753906 157.429688 147.191406 C 156.703125 149.128906 155.910156 151.042969 155.265625 153.023438 C 153.972656 156.917969 152.804688 160.878906 151.515625 164.773438 C 151.140625 165.917969 150.367188 166.941406 150.054688 168.105469 C 149.203125 171.417969 148.535156 174.773438 147.703125 178.085938 C 147.160156 180.230469 146.472656 182.335938 145.765625 184.441406 C 145.140625 186.230469 144.347656 187.960938 143.679688 189.753906 C 143.265625 190.917969 142.929688 192.128906 142.640625 193.316406 C 142.140625 195.441406 141.722656 197.566406 141.242188 199.691406 C 140.765625 201.730469 140.140625 203.753906 139.722656 205.816406 C 139.222656 208.210938 138.972656 210.667969 138.453125 213.066406 C 138.054688 214.855469 139.160156 216.773438 140.429688 217.460938 C 142.390625 218.503906 144.304688 219.605469 146.140625 220.855469 C 148.117188 222.210938 150.328125 222.085938 152.535156 222.105469 C 152.890625 222.105469 153.285156 221.691406 153.578125 221.378906 C 154.992188 219.878906 156.328125 218.273438 157.828125 216.835938 C 159.410156 215.292969 161.097656 213.855469 162.804688 212.480469 C 164.242188 211.335938 165.847656 210.398438 167.742188 210.230469 C 168.472656 210.167969 169.199219 210.253906 169.910156 210.292969 C 171.617188 210.417969 173.179688 211.085938 174.285156 212.355469 C 176.785156 215.230469 177.535156 218.792969 177.742188 222.480469 C 177.867188 224.003906 177.804688 225.566406 177.804688 227.273438 Z M 177.804688 227.273438 " fill-opacity="1" fill-rule="nonzero"></path><path fill="#000000" d="M 191.65625 185.375 C 191.65625 185.246094 191.65625 185.144531 191.65625 185.03125 C 191.65625 178.082031 191.648438 171.132812 191.648438 164.183594 C 191.648438 161.910156 191.65625 159.636719 191.65625 157.363281 C 191.65625 156 191.65625 154.625 191.628906 153.261719 C 191.609375 151.972656 191.570312 150.691406 191.535156 149.402344 C 191.515625 148.75 191.496094 148.109375 191.460938 147.460938 C 191.441406 147.164062 191.386719 146.867188 191.359375 146.570312 C 191.339844 146.421875 191.246094 146.402344 191.125 146.414062 C 190.558594 146.449219 189.988281 146.476562 189.410156 146.503906 C 189.195312 146.515625 188.972656 146.503906 188.757812 146.515625 C 188.304688 146.523438 188.015625 146.152344 187.929688 145.820312 C 187.863281 145.511719 187.847656 145.199219 187.820312 144.890625 C 187.753906 144.195312 188.414062 143.59375 189.039062 143.535156 C 189.792969 143.460938 190.546875 143.332031 191.300781 143.257812 C 192.027344 143.183594 192.753906 143.101562 193.492188 143.089844 C 195.242188 143.074219 197 143.082031 198.753906 143.101562 C 199.332031 143.109375 199.90625 143.148438 200.484375 143.191406 C 200.980469 143.230469 201.464844 143.296875 201.949219 143.378906 C 202.507812 143.472656 203.054688 143.601562 203.605469 143.722656 C 204.125 143.84375 204.65625 143.964844 205.171875 144.113281 C 205.960938 144.351562 206.714844 144.667969 207.40625 145.113281 C 208.550781 145.867188 209.613281 146.710938 210.582031 147.683594 C 211.652344 148.769531 212.566406 149.976562 213.234375 151.339844 C 213.5625 152 213.824219 152.695312 214.082031 153.390625 C 214.34375 154.085938 214.492188 154.800781 214.558594 155.542969 C 214.59375 155.96875 214.640625 156.398438 214.660156 156.832031 C 214.699219 157.9375 214.734375 159.03125 214.753906 160.136719 C 214.761719 160.777344 214.753906 161.417969 214.714844 162.058594 C 214.6875 162.585938 214.625 163.113281 214.53125 163.632812 C 214.4375 164.164062 214.316406 164.691406 214.175781 165.210938 C 214 165.871094 213.851562 166.539062 213.589844 167.160156 C 213.265625 167.941406 212.871094 168.710938 212.445312 169.441406 C 211.773438 170.613281 210.859375 171.597656 209.84375 172.476562 C 208.953125 173.246094 207.964844 173.898438 206.921875 174.445312 C 206.511719 174.65625 206.109375 174.890625 205.699219 175.113281 C 205.570312 175.1875 205.578125 175.308594 205.625 175.429688 C 205.867188 176.058594 206.109375 176.679688 206.351562 177.3125 C 206.585938 177.914062 206.828125 178.507812 207.0625 179.113281 C 207.292969 179.714844 207.515625 180.316406 207.742188 180.921875 C 207.945312 181.460938 208.160156 181.996094 208.363281 182.535156 C 208.597656 183.140625 208.8125 183.742188 209.042969 184.34375 C 209.25 184.894531 209.464844 185.429688 209.667969 185.976562 C 209.875 186.515625 210.058594 187.0625 210.265625 187.601562 C 210.527344 188.296875 210.804688 188.984375 211.074219 189.671875 C 211.390625 190.46875 211.699219 191.265625 212.035156 192.054688 C 212.339844 192.796875 212.667969 193.539062 213.003906 194.28125 C 213.328125 195.007812 213.65625 195.722656 213.988281 196.445312 C 214.09375 196.667969 214.214844 196.882812 214.371094 197.066406 C 214.550781 197.28125 214.800781 197.335938 215.089844 197.289062 C 215.957031 197.140625 216.785156 197.640625 217.0625 198.457031 C 217.296875 199.136719 217.289062 199.832031 217.15625 200.527344 C 217.109375 200.757812 216.804688 201.011719 216.550781 201.074219 C 215.863281 201.242188 215.164062 201.25 214.464844 201.269531 C 213.441406 201.289062 212.425781 201.335938 211.402344 201.371094 C 210.769531 201.390625 210.164062 201.335938 209.667969 200.890625 C 209.316406 200.574219 209.128906 200.175781 209.042969 199.703125 C 208.988281 199.414062 209.074219 199.164062 209.117188 198.886719 C 209.175781 198.589844 209.148438 198.273438 209.117188 197.964844 C 209.089844 197.660156 209.015625 197.363281 208.960938 197.066406 C 208.886719 196.695312 208.800781 196.324219 208.710938 195.953125 C 208.644531 195.664062 208.570312 195.378906 208.496094 195.089844 C 208.394531 194.710938 208.289062 194.328125 208.179688 193.957031 C 208.046875 193.53125 207.898438 193.105469 207.75 192.675781 C 207.609375 192.25 207.460938 191.824219 207.3125 191.398438 C 207.171875 190.988281 207.042969 190.582031 206.902344 190.171875 C 206.734375 189.699219 206.578125 189.226562 206.398438 188.753906 C 206.230469 188.308594 206.054688 187.863281 205.878906 187.40625 C 205.710938 186.980469 205.5625 186.554688 205.382812 186.125 C 205.140625 185.53125 204.910156 184.949219 204.65625 184.363281 C 204.398438 183.769531 204.125 183.183594 203.855469 182.589844 C 203.476562 181.757812 203.101562 180.910156 202.691406 180.085938 C 202.265625 179.214844 201.816406 178.351562 201.371094 177.496094 C 201.238281 177.257812 201.089844 177.023438 200.960938 176.78125 C 200.839844 176.558594 200.464844 176.402344 200.160156 176.457031 C 199.859375 176.515625 199.5625 176.53125 199.265625 176.570312 C 198.632812 176.652344 198.007812 176.746094 197.375 176.828125 C 197.261719 176.847656 197.160156 176.839844 197.046875 176.847656 C 196.667969 176.867188 196.472656 177.070312 196.472656 177.449219 C 196.472656 179.6875 196.472656 181.921875 196.472656 184.148438 C 196.472656 184.308594 196.472656 184.457031 196.472656 184.671875 C 196.640625 184.585938 196.777344 184.523438 196.898438 184.449219 C 197.746094 183.890625 198.445312 183.203125 198.921875 182.292969 C 199.191406 181.785156 199.824219 181.617188 200.375 181.90625 C 200.839844 182.15625 201.015625 182.574219 201.128906 183.046875 C 201.59375 184.984375 201.371094 186.953125 201.398438 188.917969 C 201.40625 189.273438 201.082031 189.558594 200.632812 189.558594 C 199.347656 189.558594 198.054688 189.570312 196.769531 189.570312 C 196.675781 189.570312 196.582031 189.570312 196.472656 189.570312 C 196.460938 189.691406 196.453125 189.78125 196.453125 189.882812 C 196.453125 191.601562 196.453125 193.316406 196.453125 195.035156 C 196.453125 195.339844 196.460938 195.636719 196.453125 195.945312 C 196.433594 196.417969 196.65625 196.769531 196.972656 197.074219 C 197.53125 197.605469 198.082031 198.132812 198.652344 198.644531 C 199.070312 199.015625 199.3125 199.433594 199.253906 200.007812 C 199.199219 200.527344 198.828125 200.972656 198.257812 200.980469 C 196.441406 201.011719 194.617188 201.046875 192.800781 201.09375 C 192.4375 201.101562 192.074219 201.160156 191.722656 201.148438 C 191.164062 201.140625 190.660156 200.964844 190.25 200.582031 C 189.523438 199.90625 189.785156 199.125 190.480469 198.578125 C 190.800781 198.328125 191.117188 198.078125 191.421875 197.816406 C 191.582031 197.679688 191.628906 197.492188 191.628906 197.28125 C 191.617188 194.800781 191.617188 192.335938 191.628906 189.855469 C 191.628906 189.632812 191.5625 189.570312 191.339844 189.570312 C 186.90625 189.578125 182.472656 189.578125 178.046875 189.570312 C 176.074219 189.570312 174.089844 189.570312 172.117188 189.542969 C 171.695312 189.53125 171.277344 189.402344 170.875 189.273438 C 170.625 189.1875 170.523438 188.917969 170.496094 188.667969 C 170.46875 188.390625 170.597656 188.113281 170.832031 187.992188 C 171.734375 187.5 172.65625 187.046875 173.558594 186.570312 C 174.398438 186.136719 175.058594 185.5625 175.347656 184.613281 C 175.488281 184.148438 175.523438 183.6875 175.523438 183.214844 C 175.523438 182.777344 175.515625 182.332031 175.515625 181.894531 C 175.515625 171.253906 175.503906 160.601562 175.503906 149.957031 C 175.503906 147.210938 175.503906 144.464844 175.515625 141.726562 C 175.515625 141.441406 175.523438 141.152344 175.515625 140.875 C 175.460938 139.574219 174.871094 138.617188 173.679688 138.0625 C 173.207031 137.839844 172.710938 137.652344 172.246094 137.402344 C 171.828125 137.179688 171.519531 136.863281 171.5 136.335938 C 171.472656 135.835938 171.84375 135.527344 172.171875 135.378906 C 172.664062 135.15625 173.1875 135.082031 173.734375 135.082031 C 176.6875 135.09375 179.652344 135.082031 182.601562 135.09375 C 183.003906 135.09375 183.402344 135.203125 183.804688 135.25 C 184.074219 135.277344 184.34375 135.296875 184.539062 135.511719 C 185.117188 136.121094 185.117188 136.835938 184.28125 137.308594 C 183.664062 137.652344 183.03125 137.976562 182.425781 138.339844 C 181.652344 138.8125 181.121094 139.5 180.730469 140.308594 C 180.433594 140.917969 180.246094 141.578125 180.105469 142.238281 C 179.996094 142.746094 179.9375 143.265625 179.902344 143.785156 C 179.847656 144.425781 179.835938 145.078125 179.800781 145.726562 C 179.78125 146.117188 179.742188 146.503906 179.742188 146.894531 C 179.761719 159.617188 179.78125 172.339844 179.800781 185.070312 C 179.800781 185.300781 179.863281 185.367188 180.097656 185.367188 C 183.28125 185.355469 186.476562 185.355469 189.664062 185.355469 C 190.324219 185.375 190.976562 185.375 191.65625 185.375 Z M 196.210938 146.132812 C 196.21875 146.21875 196.21875 146.265625 196.238281 146.320312 C 196.292969 146.5625 196.386719 146.804688 196.40625 147.042969 C 196.441406 147.386719 196.433594 147.738281 196.433594 148.082031 C 196.433594 156.3125 196.433594 164.554688 196.433594 172.785156 C 196.433594 172.867188 196.414062 172.960938 196.441406 173.035156 C 196.488281 173.136719 196.554688 173.292969 196.628906 173.3125 C 197.234375 173.425781 197.832031 173.535156 198.445312 173.589844 C 199.199219 173.65625 199.953125 173.589844 200.699219 173.425781 C 201.183594 173.320312 201.6875 173.265625 202.152344 173.109375 C 202.851562 172.875 203.53125 172.589844 204.210938 172.308594 C 205.476562 171.800781 206.546875 171.039062 207.386719 169.953125 C 207.824219 169.386719 208.160156 168.746094 208.429688 168.089844 C 208.605469 167.660156 208.765625 167.226562 208.90625 166.78125 C 208.996094 166.492188 209.042969 166.1875 209.101562 165.890625 C 209.25 165.164062 209.417969 164.441406 209.527344 163.71875 C 209.632812 163.078125 209.667969 162.417969 209.714844 161.769531 C 209.742188 161.398438 209.734375 161.027344 209.742188 160.65625 C 209.753906 159.726562 209.714844 158.808594 209.566406 157.898438 C 209.511719 157.558594 209.492188 157.214844 209.453125 156.871094 C 209.425781 156.65625 209.398438 156.445312 209.34375 156.238281 C 209.230469 155.757812 209.128906 155.273438 208.988281 154.800781 C 208.839844 154.273438 208.699219 153.734375 208.496094 153.234375 C 208.140625 152.378906 207.710938 151.570312 207.164062 150.820312 C 206.457031 149.855469 205.636719 149.019531 204.648438 148.324219 C 203.355469 147.414062 201.957031 146.71875 200.402344 146.386719 C 199.75 146.246094 199.089844 146.125 198.417969 146.125 C 198.167969 146.125 197.90625 146.117188 197.652344 146.117188 C 197.167969 146.132812 196.695312 146.132812 196.210938 146.132812 Z M 196.210938 146.132812 " fill-opacity="1" fill-rule="nonzero"></path><g fill="#000000" fill-opacity="1"><g transform="translate(91.333293, 265.955138)"><g><path d="M 1.183594 -3.550781 L 9.53125 -3.550781 L 9.53125 -5.859375 C 9.53125 -6.039062 9.441406 -6.160156 9.257812 -6.160156 C 9.195312 -6.160156 9.136719 -6.132812 9.136719 -6.132812 L 9.105469 -6.101562 C 8.800781 -5.949219 8.5 -5.765625 8.195312 -5.554688 C 7.859375 -5.34375 7.527344 -5.25 7.222656 -5.25 L 4.371094 -5.25 L 4.371094 -7.769531 C 4.371094 -8.40625 4.339844 -8.953125 4.339844 -9.410156 C 4.339844 -9.863281 4.339844 -10.257812 4.339844 -10.59375 L 4.339844 -12.476562 C 4.339844 -12.777344 4.339844 -13.171875 4.339844 -13.628906 C 4.339844 -14.082031 4.371094 -14.628906 4.371094 -15.296875 L 4.371094 -17.664062 C 4.371094 -17.847656 4.402344 -18 4.492188 -18.179688 C 4.554688 -18.363281 4.644531 -18.515625 4.765625 -18.636719 C 4.886719 -18.757812 4.976562 -18.847656 5.070312 -18.941406 L 5.21875 -19.0625 C 5.28125 -19.121094 5.3125 -19.214844 5.28125 -19.335938 C 5.21875 -19.457031 5.160156 -19.515625 5.039062 -19.515625 L 1.183594 -19.515625 C 1.0625 -19.515625 1 -19.484375 0.972656 -19.425781 C 0.910156 -19.363281 0.910156 -19.304688 0.910156 -19.242188 C 0.910156 -19.152344 0.910156 -19.089844 0.972656 -19.0625 L 1.121094 -18.941406 C 1.214844 -18.847656 1.304688 -18.757812 1.425781 -18.636719 C 1.519531 -18.515625 1.609375 -18.363281 1.699219 -18.179688 C 1.789062 -18 1.851562 -17.847656 1.851562 -17.664062 L 1.851562 -5.402344 C 1.851562 -5.21875 1.789062 -5.039062 1.699219 -4.855469 C 1.609375 -4.675781 1.519531 -4.554688 1.425781 -4.429688 C 1.304688 -4.308594 1.214844 -4.1875 1.121094 -4.128906 L 0.972656 -4.007812 C 0.878906 -3.914062 0.851562 -3.824219 0.910156 -3.703125 C 0.972656 -3.582031 1.0625 -3.550781 1.183594 -3.550781 Z M 1.183594 -3.550781 "></path></g></g></g><g fill="#000000" fill-opacity="1"><g transform="translate(106.08549, 265.955138)"><g><path d="M 1.183594 -3.550781 L 5.039062 -3.550781 C 5.191406 -3.550781 5.28125 -3.640625 5.28125 -3.824219 C 5.28125 -3.886719 5.25 -3.945312 5.21875 -4.007812 L 5.070312 -4.128906 C 4.976562 -4.1875 4.886719 -4.308594 4.765625 -4.429688 C 4.644531 -4.554688 4.554688 -4.675781 4.492188 -4.855469 C 4.402344 -5.039062 4.371094 -5.21875 4.371094 -5.402344 L 4.371094 -7.769531 C 4.371094 -8.40625 4.339844 -8.953125 4.339844 -9.410156 C 4.339844 -9.863281 4.339844 -10.257812 4.339844 -10.59375 L 4.339844 -12.476562 C 4.339844 -12.777344 4.339844 -13.171875 4.339844 -13.628906 C 4.339844 -14.082031 4.371094 -14.628906 4.371094 -15.296875 L 4.371094 -17.664062 C 4.371094 -17.847656 4.402344 -18 4.492188 -18.179688 C 4.554688 -18.363281 4.644531 -18.515625 4.765625 -18.636719 C 4.886719 -18.757812 4.976562 -18.847656 5.070312 -18.941406 L 5.21875 -19.0625 C 5.28125 -19.121094 5.3125 -19.214844 5.28125 -19.335938 C 5.21875 -19.457031 5.160156 -19.515625 5.039062 -19.515625 L 1.183594 -19.515625 C 1.0625 -19.515625 1 -19.484375 0.972656 -19.425781 C 0.910156 -19.363281 0.910156 -19.304688 0.910156 -19.242188 C 0.910156 -19.152344 0.910156 -19.089844 0.972656 -19.0625 L 1.121094 -18.941406 C 1.214844 -18.847656 1.304688 -18.757812 1.425781 -18.636719 C 1.519531 -18.515625 1.609375 -18.363281 1.699219 -18.179688 C 1.789062 -18 1.851562 -17.847656 1.851562 -17.664062 L 1.851562 -5.402344 C 1.851562 -5.21875 1.789062 -5.039062 1.699219 -4.855469 C 1.609375 -4.675781 1.519531 -4.554688 1.425781 -4.429688 C 1.304688 -4.308594 1.214844 -4.1875 1.121094 -4.128906 L 0.972656 -4.007812 C 0.878906 -3.914062 0.851562 -3.824219 0.910156 -3.703125 C 0.972656 -3.582031 1.0625 -3.550781 1.183594 -3.550781 Z M 1.183594 -3.550781 "></path></g></g></g><g fill="#000000" fill-opacity="1"><g transform="translate(117.195495, 265.955138)"><g><path d="M 3.097656 -3.550781 L 7.496094 -3.550781 C 7.648438 -3.550781 7.738281 -3.640625 7.738281 -3.824219 C 7.738281 -3.886719 7.710938 -3.945312 7.679688 -4.007812 L 7.40625 -4.308594 C 7.164062 -4.554688 7.070312 -4.855469 7.070312 -5.160156 C 7.070312 -5.28125 7.070312 -5.371094 7.101562 -5.433594 C 7.195312 -6.039062 7.316406 -6.707031 7.464844 -7.496094 C 7.617188 -8.257812 7.769531 -9.046875 7.921875 -9.863281 C 8.074219 -10.683594 8.226562 -11.503906 8.378906 -12.351562 C 8.527344 -13.171875 8.679688 -13.933594 8.800781 -14.660156 C 8.921875 -15.390625 9.046875 -16.027344 9.167969 -16.601562 C 9.257812 -17.148438 9.347656 -17.605469 9.410156 -17.9375 C 9.410156 -18.03125 9.441406 -18.121094 9.5 -18.210938 L 9.621094 -18.453125 L 10.078125 -19.089844 C 10.136719 -19.152344 10.136719 -19.242188 10.078125 -19.363281 C 10.015625 -19.457031 9.925781 -19.515625 9.835938 -19.515625 L 6.828125 -19.515625 C 6.707031 -19.515625 6.648438 -19.484375 6.617188 -19.425781 C 6.554688 -19.363281 6.554688 -19.304688 6.554688 -19.242188 C 6.554688 -19.152344 6.585938 -19.089844 6.675781 -19.03125 C 6.707031 -18.96875 6.769531 -18.941406 6.828125 -18.910156 C 6.890625 -18.878906 6.921875 -18.847656 6.980469 -18.820312 C 7.195312 -18.636719 7.34375 -18.453125 7.464844 -18.210938 C 7.558594 -17.96875 7.589844 -17.695312 7.558594 -17.453125 C 7.464844 -16.9375 7.34375 -16.238281 7.195312 -15.390625 C 7.042969 -14.539062 6.890625 -13.597656 6.707031 -12.597656 C 6.527344 -11.5625 6.3125 -10.53125 6.132812 -9.5 C 5.949219 -8.46875 5.765625 -7.496094 5.644531 -6.648438 L 3.582031 -17.453125 C 3.550781 -17.511719 3.550781 -17.574219 3.550781 -17.695312 C 3.550781 -18.152344 3.734375 -18.515625 4.097656 -18.757812 L 4.492188 -19.03125 C 4.582031 -19.089844 4.613281 -19.183594 4.582031 -19.304688 C 4.523438 -19.425781 4.429688 -19.515625 4.308594 -19.515625 L 0.546875 -19.515625 C 0.363281 -19.515625 0.273438 -19.425781 0.273438 -19.242188 C 0.273438 -19.214844 0.273438 -19.152344 0.332031 -19.089844 L 0.789062 -18.453125 C 0.878906 -18.300781 0.941406 -18.121094 1 -17.90625 C 1.03125 -17.636719 1.09375 -17.238281 1.214844 -16.695312 C 1.335938 -16.148438 1.457031 -15.511719 1.578125 -14.78125 C 1.699219 -14.054688 1.851562 -13.292969 2.035156 -12.445312 L 2.519531 -9.925781 C 2.671875 -9.074219 2.824219 -8.285156 2.972656 -7.496094 C 3.097656 -6.707031 3.246094 -5.980469 3.367188 -5.371094 C 3.367188 -5.3125 3.398438 -5.21875 3.398438 -5.097656 C 3.398438 -4.796875 3.308594 -4.523438 3.125 -4.339844 C 3.066406 -4.21875 2.972656 -4.097656 2.882812 -4.007812 C 2.792969 -3.886719 2.761719 -3.792969 2.824219 -3.703125 C 2.882812 -3.582031 2.972656 -3.550781 3.097656 -3.550781 Z M 3.097656 -3.550781 "></path></g></g></g><g fill="#000000" fill-opacity="1"><g transform="translate(132.524366, 265.955138)"><g><path d="M 1.183594 -3.550781 L 9.53125 -3.550781 L 9.53125 -5.859375 C 9.53125 -6.039062 9.441406 -6.160156 9.257812 -6.160156 C 9.195312 -6.160156 9.136719 -6.132812 9.136719 -6.132812 L 9.105469 -6.101562 C 8.800781 -5.949219 8.5 -5.765625 8.195312 -5.554688 C 7.859375 -5.34375 7.527344 -5.25 7.222656 -5.25 L 4.371094 -5.25 L 4.371094 -10.683594 L 5.644531 -10.683594 C 6.3125 -10.683594 6.949219 -10.53125 7.558594 -10.230469 L 7.589844 -10.230469 C 7.648438 -10.167969 7.738281 -10.167969 7.832031 -10.230469 C 7.890625 -10.289062 7.953125 -10.351562 7.953125 -10.472656 L 7.953125 -12.597656 C 7.953125 -12.777344 7.859375 -12.871094 7.710938 -12.871094 C 7.648438 -12.871094 7.589844 -12.839844 7.589844 -12.839844 L 7.558594 -12.839844 C 6.949219 -12.535156 6.3125 -12.382812 5.644531 -12.382812 L 4.371094 -12.382812 L 4.371094 -17.816406 L 7.222656 -17.816406 C 7.527344 -17.816406 7.859375 -17.695312 8.195312 -17.511719 C 8.5 -17.300781 8.800781 -17.117188 9.105469 -16.96875 L 9.136719 -16.96875 C 9.226562 -16.90625 9.316406 -16.90625 9.410156 -16.96875 C 9.46875 -17.027344 9.53125 -17.089844 9.53125 -17.210938 L 9.53125 -19.515625 L 1.183594 -19.515625 C 1.0625 -19.515625 1 -19.484375 0.972656 -19.425781 C 0.910156 -19.363281 0.910156 -19.304688 0.910156 -19.242188 C 0.910156 -19.152344 0.910156 -19.089844 0.972656 -19.0625 L 1.121094 -18.941406 C 1.214844 -18.847656 1.304688 -18.757812 1.425781 -18.636719 C 1.519531 -18.515625 1.609375 -18.363281 1.699219 -18.179688 C 1.789062 -18 1.851562 -17.847656 1.851562 -17.664062 L 1.851562 -5.402344 C 1.851562 -5.21875 1.789062 -5.039062 1.699219 -4.855469 C 1.609375 -4.675781 1.519531 -4.554688 1.425781 -4.429688 C 1.304688 -4.308594 1.214844 -4.1875 1.121094 -4.128906 L 0.972656 -4.007812 C 0.878906 -3.914062 0.851562 -3.824219 0.910156 -3.703125 C 0.972656 -3.582031 1.0625 -3.550781 1.183594 -3.550781 Z M 1.183594 -3.550781 "></path></g></g></g><g fill="#000000" fill-opacity="1"><g transform="translate(147.883589, 265.955138)"><g><path d="M 1.183594 -3.550781 L 9.53125 -3.550781 L 9.53125 -5.859375 C 9.53125 -6.039062 9.441406 -6.160156 9.257812 -6.160156 C 9.195312 -6.160156 9.136719 -6.132812 9.136719 -6.132812 L 9.105469 -6.101562 C 8.800781 -5.949219 8.5 -5.765625 8.195312 -5.554688 C 7.859375 -5.34375 7.527344 -5.25 7.222656 -5.25 L 4.371094 -5.25 L 4.371094 -7.769531 C 4.371094 -8.40625 4.339844 -8.953125 4.339844 -9.410156 C 4.339844 -9.863281 4.339844 -10.257812 4.339844 -10.59375 L 4.339844 -12.476562 C 4.339844 -12.777344 4.339844 -13.171875 4.339844 -13.628906 C 4.339844 -14.082031 4.371094 -14.628906 4.371094 -15.296875 L 4.371094 -17.664062 C 4.371094 -17.847656 4.402344 -18 4.492188 -18.179688 C 4.554688 -18.363281 4.644531 -18.515625 4.765625 -18.636719 C 4.886719 -18.757812 4.976562 -18.847656 5.070312 -18.941406 L 5.21875 -19.0625 C 5.28125 -19.121094 5.3125 -19.214844 5.28125 -19.335938 C 5.21875 -19.457031 5.160156 -19.515625 5.039062 -19.515625 L 1.183594 -19.515625 C 1.0625 -19.515625 1 -19.484375 0.972656 -19.425781 C 0.910156 -19.363281 0.910156 -19.304688 0.910156 -19.242188 C 0.910156 -19.152344 0.910156 -19.089844 0.972656 -19.0625 L 1.121094 -18.941406 C 1.214844 -18.847656 1.304688 -18.757812 1.425781 -18.636719 C 1.519531 -18.515625 1.609375 -18.363281 1.699219 -18.179688 C 1.789062 -18 1.851562 -17.847656 1.851562 -17.664062 L 1.851562 -5.402344 C 1.851562 -5.21875 1.789062 -5.039062 1.699219 -4.855469 C 1.609375 -4.675781 1.519531 -4.554688 1.425781 -4.429688 C 1.304688 -4.308594 1.214844 -4.1875 1.121094 -4.128906 L 0.972656 -4.007812 C 0.878906 -3.914062 0.851562 -3.824219 0.910156 -3.703125 C 0.972656 -3.582031 1.0625 -3.550781 1.183594 -3.550781 Z M 1.183594 -3.550781 "></path></g></g></g><g fill="#000000" fill-opacity="1"><g transform="translate(162.635779, 265.955138)"><g><path d="M 3.492188 -3.550781 L 7.285156 -3.550781 C 7.34375 -3.550781 7.40625 -3.582031 7.464844 -3.640625 C 7.496094 -3.703125 7.527344 -3.765625 7.527344 -3.824219 C 7.527344 -3.886719 7.496094 -3.945312 7.464844 -4.007812 L 7.316406 -4.128906 C 7.222656 -4.1875 7.132812 -4.308594 7.011719 -4.429688 C 6.890625 -4.554688 6.800781 -4.675781 6.738281 -4.855469 C 6.648438 -5.039062 6.617188 -5.21875 6.617188 -5.402344 L 6.617188 -11.867188 C 6.949219 -12.535156 7.285156 -13.171875 7.617188 -13.808594 C 7.953125 -14.449219 8.257812 -15.023438 8.527344 -15.570312 C 8.800781 -16.085938 9.046875 -16.511719 9.226562 -16.875 C 9.410156 -17.210938 9.53125 -17.421875 9.589844 -17.542969 C 9.710938 -17.816406 9.894531 -18.089844 10.078125 -18.332031 C 10.257812 -18.574219 10.441406 -18.820312 10.683594 -19.0625 L 10.683594 -19.089844 C 10.773438 -19.183594 10.804688 -19.273438 10.773438 -19.363281 C 10.714844 -19.457031 10.652344 -19.515625 10.5625 -19.515625 L 7.558594 -19.515625 C 7.496094 -19.515625 7.4375 -19.484375 7.34375 -19.457031 C 7.253906 -19.394531 7.222656 -19.335938 7.222656 -19.242188 C 7.222656 -19.121094 7.316406 -19 7.527344 -18.820312 C 7.738281 -18.636719 7.859375 -18.363281 7.859375 -18.03125 C 7.859375 -17.785156 7.800781 -17.605469 7.738281 -17.453125 C 7.558594 -17.089844 7.34375 -16.722656 7.164062 -16.359375 C 6.980469 -15.996094 6.769531 -15.601562 6.554688 -15.175781 C 6.3125 -14.722656 6.070312 -14.234375 5.796875 -13.71875 C 5.433594 -14.476562 5.097656 -15.175781 4.796875 -15.84375 C 4.492188 -16.480469 4.28125 -17.027344 4.097656 -17.453125 C 3.976562 -17.695312 3.945312 -17.878906 3.945312 -18.058594 C 3.945312 -18.332031 4.035156 -18.574219 4.25 -18.757812 C 4.460938 -18.941406 4.582031 -19.121094 4.582031 -19.242188 C 4.582031 -19.335938 4.523438 -19.394531 4.460938 -19.457031 C 4.371094 -19.484375 4.308594 -19.515625 4.28125 -19.515625 L 0.515625 -19.515625 C 0.363281 -19.515625 0.304688 -19.425781 0.304688 -19.304688 C 0.304688 -19.214844 0.332031 -19.152344 0.394531 -19.089844 L 0.699219 -18.757812 C 0.820312 -18.636719 0.910156 -18.546875 1 -18.453125 C 1.152344 -18.300781 1.273438 -18.121094 1.394531 -17.90625 C 1.820312 -16.9375 2.246094 -15.90625 2.730469 -14.871094 C 3.21875 -13.839844 3.671875 -12.839844 4.160156 -11.867188 L 4.160156 -9.347656 C 4.160156 -8.832031 4.128906 -8.257812 4.128906 -7.617188 C 4.128906 -6.980469 4.128906 -6.253906 4.128906 -5.402344 C 4.128906 -5.21875 4.066406 -5.039062 4.007812 -4.855469 C 3.914062 -4.675781 3.824219 -4.554688 3.703125 -4.429688 C 3.582031 -4.308594 3.492188 -4.1875 3.398438 -4.128906 L 3.277344 -4.007812 C 3.1875 -3.914062 3.15625 -3.824219 3.21875 -3.703125 C 3.277344 -3.582031 3.367188 -3.550781 3.492188 -3.550781 Z M 3.492188 -3.550781 "></path></g></g></g><g fill="#000000" fill-opacity="1"><g transform="translate(178.632385, 265.955138)"><g></g></g></g><g fill="#000000" fill-opacity="1"><g transform="translate(191.138547, 265.955138)"><g><path d="M 1.183594 -3.550781 L 5.039062 -3.550781 C 5.097656 -3.550781 5.160156 -3.582031 5.21875 -3.640625 C 5.25 -3.703125 5.28125 -3.765625 5.28125 -3.824219 C 5.28125 -3.886719 5.25 -3.945312 5.21875 -4.007812 L 5.070312 -4.128906 C 4.976562 -4.1875 4.886719 -4.308594 4.765625 -4.429688 C 4.644531 -4.554688 4.554688 -4.675781 4.492188 -4.855469 C 4.402344 -5.039062 4.371094 -5.21875 4.371094 -5.402344 L 4.339844 -10.015625 C 4.429688 -10.015625 4.523438 -10.015625 4.613281 -10.015625 C 4.675781 -10.015625 4.765625 -10.046875 4.886719 -10.046875 L 6.40625 -5.554688 C 6.40625 -5.464844 6.433594 -5.402344 6.433594 -5.34375 C 6.433594 -5.28125 6.464844 -5.191406 6.464844 -5.128906 C 6.464844 -4.703125 6.34375 -4.339844 6.132812 -4.007812 C 6.132812 -3.976562 6.101562 -3.976562 6.101562 -3.976562 C 6.039062 -3.855469 6.039062 -3.765625 6.101562 -3.671875 C 6.160156 -3.582031 6.222656 -3.550781 6.34375 -3.550781 L 9.316406 -3.550781 C 9.5 -3.550781 9.589844 -3.640625 9.589844 -3.824219 C 9.589844 -3.886719 9.5625 -3.976562 9.5 -4.035156 C 9.441406 -4.097656 9.316406 -4.21875 9.167969 -4.402344 C 9.046875 -4.492188 8.984375 -4.582031 8.921875 -4.675781 C 8.863281 -4.734375 8.742188 -4.949219 8.621094 -5.3125 C 8.5 -5.675781 8.285156 -6.253906 8.011719 -7.042969 C 7.738281 -7.832031 7.34375 -9.015625 6.859375 -10.53125 C 7.710938 -10.898438 8.378906 -11.472656 8.863281 -12.203125 C 9.347656 -12.929688 9.589844 -13.78125 9.589844 -14.722656 C 9.589844 -15.359375 9.46875 -15.964844 9.257812 -16.542969 C 9.015625 -17.089844 8.679688 -17.605469 8.257812 -18.03125 C 7.832031 -18.453125 7.285156 -18.820312 6.617188 -19.0625 C 5.949219 -19.304688 5.160156 -19.457031 4.28125 -19.457031 C 3.824219 -19.457031 3.339844 -19.457031 2.851562 -19.484375 C 2.335938 -19.484375 1.789062 -19.515625 1.183594 -19.515625 C 1 -19.515625 0.910156 -19.394531 0.910156 -19.214844 C 0.910156 -19.089844 0.941406 -19.03125 1 -18.96875 C 1.152344 -18.789062 1.304688 -18.636719 1.425781 -18.453125 C 1.519531 -18.273438 1.609375 -18.089844 1.699219 -17.90625 C 1.789062 -17.726562 1.851562 -17.511719 1.851562 -17.300781 L 1.851562 -5.402344 C 1.851562 -5.21875 1.789062 -5.039062 1.699219 -4.855469 C 1.609375 -4.675781 1.519531 -4.554688 1.425781 -4.429688 C 1.304688 -4.25 1.152344 -4.128906 1 -4.007812 C 0.878906 -3.914062 0.851562 -3.824219 0.910156 -3.703125 C 0.972656 -3.582031 1.0625 -3.550781 1.183594 -3.550781 Z M 4.675781 -11.5625 C 4.492188 -11.5625 4.371094 -11.5625 4.308594 -11.59375 L 4.308594 -17.878906 C 4.765625 -17.90625 5.160156 -17.847656 5.523438 -17.695312 C 5.859375 -17.511719 6.132812 -17.300781 6.375 -16.996094 C 6.585938 -16.695312 6.738281 -16.359375 6.859375 -15.964844 C 6.980469 -15.570312 7.042969 -15.175781 7.042969 -14.75 C 7.042969 -14.328125 6.980469 -13.933594 6.890625 -13.566406 C 6.769531 -13.203125 6.617188 -12.871094 6.433594 -12.566406 C 6.222656 -12.261719 5.980469 -12.019531 5.675781 -11.835938 C 5.371094 -11.65625 5.039062 -11.5625 4.675781 -11.5625 Z M 4.675781 -11.5625 "></path></g></g></g><g fill="#000000" fill-opacity="1"><g transform="translate(205.951442, 265.955138)"><g><path d="M 6.253906 -3.550781 C 7.042969 -3.550781 7.832031 -3.734375 8.558594 -4.160156 C 9.289062 -4.582031 9.894531 -5.160156 10.441406 -5.886719 C 10.957031 -6.617188 11.382812 -7.464844 11.6875 -8.4375 C 11.988281 -9.410156 12.171875 -10.441406 12.171875 -11.535156 C 12.171875 -12.625 11.988281 -13.660156 11.6875 -14.628906 C 11.382812 -15.601562 10.957031 -16.449219 10.441406 -17.179688 C 9.894531 -17.90625 9.289062 -18.453125 8.558594 -18.878906 C 7.832031 -19.304688 7.042969 -19.515625 6.253906 -19.515625 C 5.402344 -19.515625 4.644531 -19.304688 3.914062 -18.878906 C 3.1875 -18.453125 2.578125 -17.90625 2.035156 -17.179688 C 1.488281 -16.449219 1.0625 -15.601562 0.757812 -14.628906 C 0.457031 -13.660156 0.304688 -12.625 0.304688 -11.535156 C 0.304688 -10.441406 0.457031 -9.410156 0.757812 -8.4375 C 1.0625 -7.464844 1.488281 -6.617188 2.035156 -5.886719 C 2.578125 -5.160156 3.1875 -4.582031 3.914062 -4.160156 C 4.644531 -3.734375 5.402344 -3.550781 6.253906 -3.550781 Z M 6.253906 -5.3125 C 5.765625 -5.3125 5.3125 -5.492188 4.886719 -5.859375 C 4.460938 -6.222656 4.066406 -6.675781 3.765625 -7.285156 C 3.429688 -7.890625 3.15625 -8.558594 2.972656 -9.289062 C 2.792969 -10.015625 2.703125 -10.773438 2.703125 -11.535156 C 2.703125 -12.261719 2.792969 -13.019531 2.972656 -13.75 C 3.15625 -14.476562 3.429688 -15.144531 3.765625 -15.753906 C 4.066406 -16.359375 4.460938 -16.84375 4.886719 -17.210938 C 5.3125 -17.574219 5.765625 -17.785156 6.253906 -17.785156 C 6.707031 -17.785156 7.164062 -17.574219 7.589844 -17.210938 C 8.011719 -16.84375 8.378906 -16.359375 8.710938 -15.753906 C 9.015625 -15.144531 9.289062 -14.476562 9.46875 -13.75 C 9.652344 -13.019531 9.773438 -12.261719 9.773438 -11.535156 C 9.773438 -10.773438 9.652344 -10.015625 9.46875 -9.289062 C 9.289062 -8.558594 9.015625 -7.890625 8.710938 -7.285156 C 8.378906 -6.675781 8.011719 -6.222656 7.589844 -5.859375 C 7.164062 -5.492188 6.707031 -5.3125 6.253906 -5.3125 Z M 6.253906 -5.3125 "></path></g></g></g><g fill="#000000" fill-opacity="1"><g transform="translate(223.344219, 265.955138)"><g><path d="M 6.253906 -3.550781 C 7.042969 -3.550781 7.832031 -3.734375 8.558594 -4.160156 C 9.289062 -4.582031 9.894531 -5.160156 10.441406 -5.886719 C 10.957031 -6.617188 11.382812 -7.464844 11.6875 -8.4375 C 11.988281 -9.410156 12.171875 -10.441406 12.171875 -11.535156 C 12.171875 -12.625 11.988281 -13.660156 11.6875 -14.628906 C 11.382812 -15.601562 10.957031 -16.449219 10.441406 -17.179688 C 9.894531 -17.90625 9.289062 -18.453125 8.558594 -18.878906 C 7.832031 -19.304688 7.042969 -19.515625 6.253906 -19.515625 C 5.402344 -19.515625 4.644531 -19.304688 3.914062 -18.878906 C 3.1875 -18.453125 2.578125 -17.90625 2.035156 -17.179688 C 1.488281 -16.449219 1.0625 -15.601562 0.757812 -14.628906 C 0.457031 -13.660156 0.304688 -12.625 0.304688 -11.535156 C 0.304688 -10.441406 0.457031 -9.410156 0.757812 -8.4375 C 1.0625 -7.464844 1.488281 -6.617188 2.035156 -5.886719 C 2.578125 -5.160156 3.1875 -4.582031 3.914062 -4.160156 C 4.644531 -3.734375 5.402344 -3.550781 6.253906 -3.550781 Z M 6.253906 -5.3125 C 5.765625 -5.3125 5.3125 -5.492188 4.886719 -5.859375 C 4.460938 -6.222656 4.066406 -6.675781 3.765625 -7.285156 C 3.429688 -7.890625 3.15625 -8.558594 2.972656 -9.289062 C 2.792969 -10.015625 2.703125 -10.773438 2.703125 -11.535156 C 2.703125 -12.261719 2.792969 -13.019531 2.972656 -13.75 C 3.15625 -14.476562 3.429688 -15.144531 3.765625 -15.753906 C 4.066406 -16.359375 4.460938 -16.84375 4.886719 -17.210938 C 5.3125 -17.574219 5.765625 -17.785156 6.253906 -17.785156 C 6.707031 -17.785156 7.164062 -17.574219 7.589844 -17.210938 C 8.011719 -16.84375 8.378906 -16.359375 8.710938 -15.753906 C 9.015625 -15.144531 9.289062 -14.476562 9.46875 -13.75 C 9.652344 -13.019531 9.773438 -12.261719 9.773438 -11.535156 C 9.773438 -10.773438 9.652344 -10.015625 9.46875 -9.289062 C 9.289062 -8.558594 9.015625 -7.890625 8.710938 -7.285156 C 8.378906 -6.675781 8.011719 -6.222656 7.589844 -5.859375 C 7.164062 -5.492188 6.707031 -5.3125 6.253906 -5.3125 Z M 6.253906 -5.3125 "></path></g></g></g><g fill="#000000" fill-opacity="1"><g transform="translate(240.736967, 265.955138)"><g><path d="M 1.183594 -3.550781 L 5.039062 -3.550781 C 5.191406 -3.550781 5.28125 -3.640625 5.28125 -3.824219 C 5.28125 -3.886719 5.25 -3.945312 5.21875 -4.007812 L 5.070312 -4.128906 C 4.976562 -4.1875 4.886719 -4.308594 4.765625 -4.429688 C 4.644531 -4.554688 4.554688 -4.675781 4.492188 -4.855469 C 4.402344 -5.039062 4.371094 -5.21875 4.371094 -5.402344 L 4.371094 -10.683594 L 5.644531 -10.683594 C 6.3125 -10.683594 6.949219 -10.53125 7.558594 -10.230469 L 7.589844 -10.230469 C 7.648438 -10.167969 7.738281 -10.167969 7.832031 -10.230469 C 7.890625 -10.289062 7.953125 -10.351562 7.953125 -10.472656 L 7.953125 -12.597656 C 7.953125 -12.777344 7.859375 -12.871094 7.710938 -12.871094 C 7.648438 -12.871094 7.589844 -12.839844 7.589844 -12.839844 L 7.558594 -12.839844 C 6.949219 -12.535156 6.3125 -12.382812 5.644531 -12.382812 L 4.371094 -12.382812 L 4.371094 -17.816406 L 7.222656 -17.816406 C 7.527344 -17.816406 7.859375 -17.695312 8.195312 -17.511719 C 8.5 -17.300781 8.800781 -17.117188 9.105469 -16.96875 L 9.136719 -16.96875 C 9.226562 -16.90625 9.316406 -16.90625 9.410156 -16.96875 C 9.46875 -17.027344 9.53125 -17.089844 9.53125 -17.210938 L 9.53125 -19.515625 L 1.183594 -19.515625 C 1.0625 -19.515625 1 -19.484375 0.972656 -19.425781 C 0.910156 -19.363281 0.910156 -19.304688 0.910156 -19.242188 C 0.910156 -19.152344 0.910156 -19.089844 0.972656 -19.0625 L 1.121094 -18.941406 C 1.214844 -18.847656 1.304688 -18.757812 1.425781 -18.636719 C 1.519531 -18.515625 1.609375 -18.363281 1.699219 -18.179688 C 1.789062 -18 1.851562 -17.847656 1.851562 -17.664062 L 1.851562 -5.402344 C 1.851562 -5.21875 1.789062 -5.039062 1.699219 -4.855469 C 1.609375 -4.675781 1.519531 -4.554688 1.425781 -4.429688 C 1.304688 -4.308594 1.214844 -4.1875 1.121094 -4.128906 L 0.972656 -4.007812 C 0.878906 -3.914062 0.851562 -3.824219 0.910156 -3.703125 C 0.972656 -3.582031 1.0625 -3.550781 1.183594 -3.550781 Z M 1.183594 -3.550781 "></path></g></g></g><g fill="#000000" fill-opacity="1"><g transform="translate(255.489157, 265.955138)"><g><path d="M 1.183594 -3.550781 L 5.039062 -3.550781 C 5.191406 -3.550781 5.28125 -3.640625 5.28125 -3.824219 C 5.28125 -3.886719 5.25 -3.945312 5.21875 -4.007812 L 5.070312 -4.128906 C 4.976562 -4.1875 4.886719 -4.308594 4.765625 -4.429688 C 4.644531 -4.554688 4.554688 -4.675781 4.492188 -4.855469 C 4.402344 -5.039062 4.371094 -5.21875 4.371094 -5.402344 L 4.371094 -7.769531 C 4.371094 -8.40625 4.339844 -8.953125 4.339844 -9.410156 C 4.339844 -9.863281 4.339844 -10.257812 4.339844 -10.59375 L 4.339844 -12.476562 C 4.339844 -12.777344 4.339844 -13.171875 4.339844 -13.628906 C 4.339844 -14.082031 4.371094 -14.628906 4.371094 -15.296875 L 4.371094 -17.664062 C 4.371094 -17.847656 4.402344 -18 4.492188 -18.179688 C 4.554688 -18.363281 4.644531 -18.515625 4.765625 -18.636719 C 4.886719 -18.757812 4.976562 -18.847656 5.070312 -18.941406 L 5.21875 -19.0625 C 5.28125 -19.121094 5.3125 -19.214844 5.28125 -19.335938 C 5.21875 -19.457031 5.160156 -19.515625 5.039062 -19.515625 L 1.183594 -19.515625 C 1.0625 -19.515625 1 -19.484375 0.972656 -19.425781 C 0.910156 -19.363281 0.910156 -19.304688 0.910156 -19.242188 C 0.910156 -19.152344 0.910156 -19.089844 0.972656 -19.0625 L 1.121094 -18.941406 C 1.214844 -18.847656 1.304688 -18.757812 1.425781 -18.636719 C 1.519531 -18.515625 1.609375 -18.363281 1.699219 -18.179688 C 1.789062 -18 1.851562 -17.847656 1.851562 -17.664062 L 1.851562 -5.402344 C 1.851562 -5.21875 1.789062 -5.039062 1.699219 -4.855469 C 1.609375 -4.675781 1.519531 -4.554688 1.425781 -4.429688 C 1.304688 -4.308594 1.214844 -4.1875 1.121094 -4.128906 L 0.972656 -4.007812 C 0.878906 -3.914062 0.851562 -3.824219 0.910156 -3.703125 C 0.972656 -3.582031 1.0625 -3.550781 1.183594 -3.550781 Z M 1.183594 -3.550781 "></path></g></g></g><g fill="#000000" fill-opacity="1"><g transform="translate(266.599176, 265.955138)"><g><path d="M 1.183594 -3.550781 L 4.917969 -3.550781 C 4.976562 -3.550781 5.039062 -3.582031 5.097656 -3.640625 C 5.128906 -3.703125 5.160156 -3.765625 5.160156 -3.824219 C 5.160156 -3.886719 5.128906 -3.945312 5.097656 -4.007812 L 4.949219 -4.128906 C 4.855469 -4.1875 4.765625 -4.308594 4.644531 -4.429688 C 4.523438 -4.554688 4.429688 -4.675781 4.371094 -4.855469 C 4.28125 -5.039062 4.25 -5.21875 4.25 -5.402344 C 4.25 -6.375 4.21875 -7.164062 4.21875 -7.800781 C 4.21875 -8.4375 4.21875 -8.984375 4.21875 -9.410156 L 4.21875 -13.476562 C 4.824219 -12.050781 5.433594 -10.683594 6.039062 -9.410156 C 6.648438 -8.105469 7.195312 -6.890625 7.679688 -5.796875 C 7.710938 -5.675781 7.738281 -5.585938 7.769531 -5.492188 C 7.769531 -5.402344 7.800781 -5.3125 7.800781 -5.21875 C 7.800781 -4.734375 7.617188 -4.371094 7.253906 -4.066406 L 7.195312 -4.007812 C 7.101562 -3.914062 7.070312 -3.824219 7.132812 -3.703125 C 7.164062 -3.582031 7.253906 -3.550781 7.375 -3.550781 L 11.109375 -3.550781 C 11.167969 -3.550781 11.230469 -3.582031 11.292969 -3.640625 C 11.320312 -3.703125 11.351562 -3.765625 11.351562 -3.824219 C 11.351562 -3.886719 11.320312 -3.945312 11.292969 -4.007812 L 11.140625 -4.128906 C 11.046875 -4.1875 10.957031 -4.308594 10.835938 -4.429688 C 10.714844 -4.554688 10.625 -4.675781 10.5625 -4.855469 C 10.472656 -5.039062 10.441406 -5.21875 10.441406 -5.402344 L 10.441406 -7.769531 C 10.441406 -8.40625 10.410156 -8.953125 10.410156 -9.410156 C 10.410156 -9.863281 10.410156 -10.257812 10.410156 -10.59375 L 10.410156 -12.476562 C 10.410156 -12.777344 10.410156 -13.171875 10.410156 -13.628906 C 10.410156 -14.082031 10.441406 -14.628906 10.441406 -15.296875 L 10.441406 -17.664062 C 10.441406 -17.847656 10.472656 -18 10.5625 -18.179688 C 10.625 -18.363281 10.714844 -18.515625 10.835938 -18.636719 C 10.957031 -18.757812 11.046875 -18.847656 11.140625 -18.941406 L 11.292969 -19.0625 C 11.351562 -19.121094 11.382812 -19.214844 11.320312 -19.335938 C 11.261719 -19.457031 11.199219 -19.515625 11.109375 -19.515625 L 7.375 -19.515625 C 7.195312 -19.515625 7.132812 -19.425781 7.132812 -19.242188 C 7.132812 -19.152344 7.132812 -19.089844 7.195312 -19.0625 C 7.34375 -18.910156 7.496094 -18.757812 7.617188 -18.636719 C 7.710938 -18.484375 7.800781 -18.332031 7.890625 -18.179688 C 7.984375 -18 8.042969 -17.847656 8.042969 -17.664062 L 8.042969 -9.5625 C 7.4375 -10.925781 6.828125 -12.261719 6.222656 -13.539062 C 5.613281 -14.8125 5.070312 -16.054688 4.582031 -17.210938 C 4.492188 -17.390625 4.460938 -17.574219 4.460938 -17.816406 C 4.460938 -18.300781 4.644531 -18.695312 5.039062 -19.03125 L 5.097656 -19.0625 C 5.160156 -19.121094 5.191406 -19.214844 5.128906 -19.335938 C 5.070312 -19.457031 5.007812 -19.515625 4.917969 -19.515625 L 1.183594 -19.515625 C 1 -19.515625 0.910156 -19.425781 0.910156 -19.242188 C 0.910156 -19.183594 0.941406 -19.121094 1 -19.0625 C 1.152344 -18.910156 1.304688 -18.757812 1.425781 -18.636719 C 1.519531 -18.484375 1.609375 -18.332031 1.699219 -18.179688 C 1.789062 -18 1.851562 -17.847656 1.851562 -17.664062 L 1.851562 -5.402344 C 1.851562 -5.21875 1.789062 -5.039062 1.699219 -4.855469 C 1.609375 -4.675781 1.519531 -4.554688 1.425781 -4.429688 C 1.304688 -4.25 1.152344 -4.128906 1 -4.007812 C 0.878906 -3.914062 0.851562 -3.824219 0.910156 -3.703125 C 0.972656 -3.582031 1.0625 -3.550781 1.183594 -3.550781 Z M 1.183594 -3.550781 "></path></g></g></g><g fill="#000000" fill-opacity="1"><g transform="translate(283.779479, 265.955138)"><g><path d="M 6.921875 -3.550781 C 7.195312 -3.550781 7.464844 -3.550781 7.769531 -3.613281 C 8.074219 -3.640625 8.347656 -3.703125 8.652344 -3.765625 L 11.167969 -4.308594 L 11.167969 -10.773438 C 11.167969 -10.957031 11.199219 -11.109375 11.292969 -11.292969 C 11.351562 -11.472656 11.441406 -11.625 11.5625 -11.746094 C 11.6875 -11.867188 11.777344 -11.988281 11.867188 -12.050781 L 12.019531 -12.171875 C 12.082031 -12.261719 12.109375 -12.351562 12.050781 -12.476562 C 11.988281 -12.566406 11.929688 -12.625 11.835938 -12.625 L 7.984375 -12.625 C 7.800781 -12.625 7.710938 -12.535156 7.710938 -12.351562 C 7.710938 -12.261719 7.710938 -12.203125 7.769531 -12.171875 L 7.921875 -12.050781 C 8.011719 -11.988281 8.105469 -11.867188 8.226562 -11.746094 C 8.316406 -11.625 8.40625 -11.472656 8.5 -11.292969 C 8.589844 -11.109375 8.652344 -10.957031 8.652344 -10.773438 L 8.652344 -5.765625 C 8.105469 -5.34375 7.527344 -5.160156 6.921875 -5.160156 C 6.464844 -5.160156 6.011719 -5.3125 5.554688 -5.613281 C 5.070312 -5.917969 4.644531 -6.34375 4.28125 -6.890625 C 3.886719 -7.4375 3.582031 -8.105469 3.339844 -8.894531 C 3.097656 -9.683594 2.972656 -10.5625 2.972656 -11.535156 C 2.972656 -12.503906 3.097656 -13.414062 3.367188 -14.203125 C 3.613281 -14.992188 3.945312 -15.660156 4.339844 -16.207031 C 4.734375 -16.753906 5.191406 -17.148438 5.675781 -17.453125 C 6.160156 -17.757812 6.617188 -17.90625 7.070312 -17.90625 C 7.769531 -17.90625 8.347656 -17.695312 8.832031 -17.300781 C 9.316406 -16.875 9.621094 -16.390625 9.773438 -15.785156 C 9.835938 -15.570312 9.957031 -15.480469 10.136719 -15.480469 C 10.230469 -15.480469 10.320312 -15.511719 10.378906 -15.570312 C 10.441406 -15.632812 10.503906 -15.722656 10.503906 -15.84375 L 10.503906 -19.0625 C 10.503906 -19.242188 10.410156 -19.335938 10.230469 -19.335938 C 10.167969 -19.335938 10.105469 -19.304688 10.105469 -19.304688 C 9.925781 -19.183594 9.710938 -19.152344 9.46875 -19.152344 C 9.257812 -19.152344 9.105469 -19.152344 9.046875 -19.214844 C 8.742188 -19.304688 8.40625 -19.363281 8.042969 -19.425781 C 7.679688 -19.484375 7.316406 -19.515625 6.921875 -19.515625 C 5.796875 -19.515625 4.824219 -19.304688 4.007812 -18.878906 C 3.15625 -18.453125 2.488281 -17.90625 1.941406 -17.179688 C 1.394531 -16.449219 0.972656 -15.601562 0.699219 -14.628906 C 0.425781 -13.660156 0.304688 -12.625 0.304688 -11.535156 C 0.304688 -10.441406 0.425781 -9.410156 0.699219 -8.4375 C 0.972656 -7.464844 1.394531 -6.617188 1.941406 -5.886719 C 2.488281 -5.160156 3.15625 -4.582031 4.007812 -4.160156 C 4.824219 -3.734375 5.796875 -3.550781 6.921875 -3.550781 Z M 6.921875 -3.550781 "></path></g></g></g></svg>